<?xml version="1.0" encoding="UTF-8" standalone="no"?>
<svg
   xmlns:dc="http://purl.org/dc/elements/1.1/"
   xmlns:cc="http://creativecommons.org/ns#"
   xmlns:rdf="http://www.w3.org/1999/02/22-rdf-syntax-ns#"
   xmlns:svg="http://www.w3.org/2000/svg"
   xmlns="http://www.w3.org/2000/svg"
   id="svg8"
   version="1.1"
   viewBox="0 0 210 297"
   height="297mm"
   width="210mm">
  <defs
     id="defs2" />
  <metadata
     id="metadata5">
    <rdf:RDF>
      <cc:Work
         rdf:about="">
        <dc:format>image/svg+xml</dc:format>
        <dc:type
           rdf:resource="http://purl.org/dc/dcmitype/StillImage" />
        <dc:title></dc:title>
      </cc:Work>
    </rdf:RDF>
  </metadata>
  <g
     id="layer1">
    <path
       id="path886"
       d="M 23.323541,5.4642151 H 182.93678 V 291.64473 H 23.454157 Z"
       style="opacity:1;vector-effect:none;fill:#4d4d4d;fill-opacity:1;stroke:#000000;stroke-width:0.26458332px;stroke-linecap:butt;stroke-linejoin:miter;stroke-miterlimit:10;stroke-dasharray:none;stroke-dashoffset:0;stroke-opacity:1" />
    <path
       id="path888"
       d="m 23.387373,58.642612 h 35.558498 v 7.180969 H 23.364283 Z"
       style="opacity:1;vector-effect:none;fill:#999999;fill-opacity:1;stroke:#000000;stroke-width:0.26458332px;stroke-linecap:butt;stroke-linejoin:miter;stroke-miterlimit:10;stroke-dasharray:none;stroke-dashoffset:0;stroke-opacity:1" />
    <path
       id="path890"
       d="M 140.29172,5.4203136 V 40.840273 h 6.83462 V 5.4203136 Z"
       style="opacity:1;vector-effect:none;fill:#999999;fill-opacity:1;stroke:#000000;stroke-width:0.26458332px;stroke-linecap:butt;stroke-linejoin:miter;stroke-miterlimit:10;stroke-dasharray:none;stroke-dashoffset:0;stroke-opacity:1" />
    <path
       id="path892"
       d="m 99.699604,58.573341 c 6.880806,0 6.926986,0.04618 6.926986,0.04618 v 28.308257 h -6.926986 z"
       style="opacity:1;vector-effect:none;fill:#999999;fill-opacity:1;stroke:#000000;stroke-width:0.26458332px;stroke-linecap:butt;stroke-linejoin:miter;stroke-miterlimit:10;stroke-dasharray:none;stroke-dashoffset:0;stroke-opacity:1" />
    <path
       id="path894"
       d="m 142.28243,130.66002 h 7.05329 v 35.46235 h -6.79205 z"
       style="opacity:1;vector-effect:none;fill:#999999;fill-opacity:1;stroke:#000000;stroke-width:0.26458332px;stroke-linecap:butt;stroke-linejoin:miter;stroke-miterlimit:10;stroke-dasharray:none;stroke-dashoffset:0;stroke-opacity:1" />
    <path
       id="path896"
       d="m 103.19546,142.18692 -6.138966,6.13897 6.041006,6.04101 6.10632,-6.10632 z"
       style="opacity:1;vector-effect:none;fill:#999999;fill-opacity:1;stroke:#000000;stroke-width:0.26458332px;stroke-linecap:butt;stroke-linejoin:miter;stroke-miterlimit:10;stroke-dasharray:none;stroke-dashoffset:0;stroke-opacity:1" />
    <path
       id="path898"
       d="m 57.055225,131.00289 h 6.987976 v 35.21745 h -6.938996 z"
       style="opacity:1;vector-effect:none;fill:#999999;fill-opacity:1;stroke:#000000;stroke-width:0.26458332px;stroke-linecap:butt;stroke-linejoin:miter;stroke-miterlimit:10;stroke-dasharray:none;stroke-dashoffset:0;stroke-opacity:1" />
    <path
       id="path900"
       d="m 99.73413,210.07479 h 6.85736 v 28.40906 h -6.792053 z"
       style="opacity:1;vector-effect:none;fill:#999999;fill-opacity:1;stroke:#000000;stroke-width:0.26458332px;stroke-linecap:butt;stroke-linejoin:miter;stroke-miterlimit:10;stroke-dasharray:none;stroke-dashoffset:0;stroke-opacity:1" />
    <path
       id="path902"
       d="m 59.43076,256.17699 h 7.111701 v 35.43509 H 59.40632 Z"
       style="opacity:1;vector-effect:none;fill:#999999;fill-opacity:1;stroke:#000000;stroke-width:0.26458332px;stroke-linecap:butt;stroke-linejoin:miter;stroke-miterlimit:10;stroke-dasharray:none;stroke-dashoffset:0;stroke-opacity:1" />
    <path
       id="path904"
       d="m 147.31106,231.28604 h 35.74322 v 6.88081 h -35.7894 z"
       style="opacity:1;vector-effect:none;fill:#999999;fill-opacity:1;stroke:#000000;stroke-width:0.26458332px;stroke-linecap:butt;stroke-linejoin:miter;stroke-miterlimit:10;stroke-dasharray:none;stroke-dashoffset:0;stroke-opacity:1" />
    <path
       id="path906"
       d="m 159.1646,139.80317 h 15.34743 v 17.43729 h -15.28212 z"
       style="opacity:1;vector-effect:none;fill:none;fill-opacity:1;stroke:#ffbf25;stroke-width:1.39999998;stroke-linecap:butt;stroke-linejoin:miter;stroke-miterlimit:10;stroke-dasharray:none;stroke-dashoffset:0;stroke-opacity:1" />
    <path
       id="path906-3"
       d="m 31.880209,139.73272 h 15.347445 v 17.43729 H 31.94552 Z"
       style="opacity:1;vector-effect:none;fill:none;fill-opacity:1;stroke:#ffbf25;stroke-width:1.39999998;stroke-linecap:butt;stroke-linejoin:miter;stroke-miterlimit:10;stroke-dasharray:none;stroke-dashoffset:0;stroke-opacity:1" />
    <path
       id="path906-6"
       d="m 116.47252,215.5518 h 15.34743 v 17.43729 h -15.28212 z"
       style="opacity:1;vector-effect:none;fill:none;fill-opacity:1;stroke:#ffbf25;stroke-width:1.39999998;stroke-linecap:butt;stroke-linejoin:miter;stroke-miterlimit:10;stroke-dasharray:none;stroke-dashoffset:0;stroke-opacity:1" />
    <path
       id="path906-7"
       d="m 75.86425,265.19142 h 15.34743 v 17.43729 H 75.92956 Z"
       style="opacity:1;vector-effect:none;fill:none;fill-opacity:1;stroke:#ffbf25;stroke-width:1.39999998;stroke-linecap:butt;stroke-linejoin:miter;stroke-miterlimit:10;stroke-dasharray:none;stroke-dashoffset:0;stroke-opacity:1" />
    <path
       id="path906-5"
       d="m 115.03599,14.418891 h 15.34744 v 17.43729 H 115.1013 Z"
       style="opacity:1;vector-effect:none;fill:none;fill-opacity:1;stroke:#ffbf25;stroke-width:1.39999998;stroke-linecap:butt;stroke-linejoin:miter;stroke-miterlimit:10;stroke-dasharray:none;stroke-dashoffset:0;stroke-opacity:1" />
    <path
       id="path906-35"
       d="m 74.624441,64.202233 h 15.34743 v 17.43729 h -15.28212 z"
       style="opacity:1;vector-effect:none;fill:none;fill-opacity:1;stroke:#ffbf25;stroke-width:1.39999998;stroke-linecap:butt;stroke-linejoin:miter;stroke-miterlimit:10;stroke-dasharray:none;stroke-dashoffset:0;stroke-opacity:1" />
    <path
       id="path955"
       d="m 148.16017,6.4764919 h 33.76434 V 40.208176 h -33.73168 z"
       style="opacity:1;vector-effect:none;fill:none;fill-opacity:1;stroke:#130aea;stroke-width:1.56500006;stroke-linecap:butt;stroke-linejoin:miter;stroke-miterlimit:10;stroke-dasharray:none;stroke-dashoffset:0;stroke-opacity:1" />
    <path
       id="path955-6"
       d="M 24.388394,6.4724828 H 58.336077 V 40.20002 H 24.421231 Z"
       style="opacity:1;vector-effect:none;fill:none;fill-opacity:1;stroke:#130aea;stroke-width:1.56914675;stroke-linecap:butt;stroke-linejoin:miter;stroke-miterlimit:10;stroke-dasharray:none;stroke-dashoffset:0;stroke-opacity:1" />
    <path
       id="path955-6-2"
       d="m 24.496698,256.76278 h 33.947675 v 33.72754 H 24.529535 Z"
       style="opacity:1;vector-effect:none;fill:none;fill-opacity:1;stroke:#ff060d;stroke-width:1.56914675;stroke-linecap:butt;stroke-linejoin:miter;stroke-miterlimit:10;stroke-dasharray:none;stroke-dashoffset:0;stroke-opacity:1" />
    <path
       id="path955-6-2-9"
       d="m 147.97578,256.88775 h 33.94767 v 33.72754 h -33.91483 z"
       style="opacity:1;vector-effect:none;fill:none;fill-opacity:1;stroke:#ff060d;stroke-width:1.56914675;stroke-linecap:butt;stroke-linejoin:miter;stroke-miterlimit:10;stroke-dasharray:none;stroke-dashoffset:0;stroke-opacity:1" />
    <path
       id="path1004"
       d="m 58.070463,149.59902 c 0.01045,-0.66597 0.02747,-1.70653 0.03784,-2.31235 l 0.01884,-1.10149 h 2.402459 2.402456 v 2.31235 2.31235 h -2.440297 -2.440297 z"
       style="opacity:0;fill:#ffe100;fill-opacity:1;stroke:#ffa600;stroke-width:0.18483034;stroke-miterlimit:10;stroke-dasharray:none;stroke-opacity:1" />
    <path
       id="path1006"
       d="m 58.070463,149.59902 c 0.01045,-0.66597 0.02747,-1.70653 0.03784,-2.31235 l 0.01884,-1.10149 h 2.402459 2.402456 v 2.31235 2.31235 h -2.440297 -2.440297 z"
       style="opacity:0;fill:#ffcc00;fill-opacity:1;stroke:#ffa600;stroke-width:0.18483034;stroke-miterlimit:10;stroke-dasharray:none;stroke-opacity:1" />
    <path
       id="path1008"
       d="m 58.070463,149.59902 c 0.01045,-0.66597 0.02747,-1.70653 0.03784,-2.31235 l 0.01884,-1.10149 h 2.402459 2.402456 v 2.31235 2.31235 h -2.440297 -2.440297 z"
       style="opacity:0;fill:#ffcc00;fill-opacity:1;stroke:#ffa600;stroke-width:0.18483034;stroke-miterlimit:10;stroke-dasharray:none;stroke-opacity:1" />
    <path
       id="path1010"
       d="m 58.070463,149.59902 c 0.01045,-0.66597 0.02747,-1.70653 0.03784,-2.31235 l 0.01884,-1.10149 h 2.402459 2.402456 v 2.31235 2.31235 h -2.440297 -2.440297 z"
       style="opacity:0;fill:#ffcc00;fill-opacity:1;stroke:#ffa600;stroke-width:0.18483034;stroke-miterlimit:10;stroke-dasharray:none;stroke-opacity:1" />
    <path
       id="path1012"
       d="m 58.070463,149.59902 c 0.01045,-0.66597 0.02747,-1.70653 0.03784,-2.31235 l 0.01884,-1.10149 h 2.402459 2.402456 v 2.31235 2.31235 h -2.440297 -2.440297 z"
       style="opacity:0;fill:#ffcc00;fill-opacity:1;stroke:#ffa600;stroke-width:0.18483034;stroke-miterlimit:10;stroke-dasharray:none;stroke-opacity:1" />
    <path
       id="path1014"
       d="m 58.070463,149.59902 c 0.01045,-0.66597 0.02747,-1.70653 0.03784,-2.31235 l 0.01884,-1.10149 h 2.402459 2.402456 v 2.31235 2.31235 h -2.440297 -2.440297 z"
       style="opacity:0;fill:#ffcc00;fill-opacity:1;stroke:#ffa600;stroke-width:0.18483034;stroke-miterlimit:10;stroke-dasharray:none;stroke-opacity:1" />
    <path
       id="path1002"
       d="m 57.981381,145.99234 h 5.062167 v 4.90592 h -5.124661 z"
       style="opacity:1;vector-effect:none;fill:#ffe100;fill-opacity:1;stroke:#ffa600;stroke-width:0.26458332px;stroke-linecap:butt;stroke-linejoin:miter;stroke-miterlimit:10;stroke-dasharray:none;stroke-dashoffset:0;stroke-opacity:1" />
    <path
       id="path1002-1"
       d="m 143.45253,145.97713 h 5.06217 v 4.90592 h -5.12466 z"
       style="opacity:1;vector-effect:none;fill:#ffe100;fill-opacity:1;stroke:#ffa600;stroke-width:0.26458332px;stroke-linecap:butt;stroke-linejoin:miter;stroke-miterlimit:10;stroke-dasharray:none;stroke-dashoffset:0;stroke-opacity:1" />
    <path
       id="path1002-2"
       d="m 100.67538,221.76403 h 5.06217 v 4.90592 h -5.12467 z"
       style="opacity:1;vector-effect:none;fill:#ffe100;fill-opacity:1;stroke:#ffa600;stroke-width:0.26458332px;stroke-linecap:butt;stroke-linejoin:miter;stroke-miterlimit:10;stroke-dasharray:none;stroke-dashoffset:0;stroke-opacity:1" />
    <path
       id="path1002-7"
       d="m 100.63119,70.320581 h 5.06217 v 4.90592 h -5.12467 z"
       style="opacity:1;vector-effect:none;fill:#ffe100;fill-opacity:1;stroke:#ffa600;stroke-width:0.26458332px;stroke-linecap:butt;stroke-linejoin:miter;stroke-miterlimit:10;stroke-dasharray:none;stroke-dashoffset:0;stroke-opacity:1" />
    <path
       id="path1049"
       d="m 99.594872,148.47317 3.469008,-3.46901 3.53531,3.5353 -3.38064,3.38063 z"
       style="opacity:1;vector-effect:none;fill:#ffcc00;fill-opacity:1;stroke:#ffbc00;stroke-width:0.26458332px;stroke-linecap:butt;stroke-linejoin:miter;stroke-miterlimit:10;stroke-dasharray:none;stroke-dashoffset:0;stroke-opacity:1" />
    <path
       id="path1065"
       d="m 103.09338,151.35916 c -0.11288,-0.0161 -0.11194,-0.0156 -0.29823,-0.15662 -0.0756,-0.0573 -0.16626,-0.11709 -0.20138,-0.13297 -0.0413,-0.0187 -0.0834,-0.0686 -0.11907,-0.14131 -0.0304,-0.0618 -0.0761,-0.1216 -0.10153,-0.13278 -0.0255,-0.0112 -0.0573,-0.046 -0.0708,-0.0773 -0.12686,-0.29565 -0.45968,-0.64685 -0.77471,-0.81752 -0.0318,-0.0173 -0.0746,-0.0526 -0.095,-0.0785 -0.0204,-0.0259 -0.0827,-0.0759 -0.13833,-0.11115 -0.0557,-0.0352 -0.10126,-0.0723 -0.10126,-0.0825 0,-0.0102 -0.0746,-0.0933 -0.16572,-0.18474 -0.0911,-0.0914 -0.16571,-0.17439 -0.16571,-0.18433 0,-0.01 -0.0299,-0.0305 -0.0665,-0.0456 -0.0366,-0.0151 -0.12356,-0.0924 -0.19334,-0.17179 -0.0698,-0.0793 -0.13939,-0.15702 -0.15469,-0.17262 -0.0153,-0.0156 -0.0474,-0.0741 -0.0714,-0.13002 -0.0344,-0.0803 -0.0407,-0.12931 -0.0298,-0.233 l 0.0137,-0.13134 0.1094,-0.0494 c 0.0806,-0.0364 0.12064,-0.0715 0.15202,-0.13297 0.0234,-0.0459 0.0542,-0.0835 0.0684,-0.0835 0.0516,0 0.17189,-0.10107 0.19719,-0.16571 0.0143,-0.0365 0.0677,-0.11104 0.11869,-0.16572 0.0567,-0.0608 0.11195,-0.1523 0.14213,-0.2354 0.0272,-0.0748 0.0684,-0.1564 0.0917,-0.18136 0.0233,-0.025 0.0423,-0.0551 0.0423,-0.0669 0,-0.0119 0.0175,-0.0271 0.0388,-0.0339 0.0214,-0.007 0.0636,-0.0528 0.0939,-0.10223 0.0517,-0.0843 0.16397,-0.17566 0.21601,-0.17566 0.0127,0 0.13228,-0.0644 0.26563,-0.14305 0.19549,-0.11534 0.25322,-0.16136 0.29798,-0.23753 0.0305,-0.052 0.0888,-0.11887 0.12948,-0.14868 0.0407,-0.0298 0.0939,-0.0795 0.11816,-0.11048 0.0947,-0.12062 0.33902,-0.35457 0.37027,-0.35457 0.0181,0 0.0764,-0.0153 0.12949,-0.0341 0.14197,-0.0501 0.41378,-0.10458 0.52756,-0.10577 0.0902,-0.001 0.10437,0.006 0.1547,0.0805 0.0531,0.0782 0.2299,0.21543 0.38381,0.29793 0.0401,0.0215 0.1168,0.0814 0.17049,0.13327 0.0537,0.0518 0.18711,0.18005 0.29648,0.28495 0.10938,0.10489 0.21875,0.22309 0.24305,0.26266 0.0662,0.10778 0.3128,0.35497 0.38679,0.38771 0.0413,0.0183 0.0697,0.0507 0.0781,0.089 0.0154,0.07 0.14777,0.19468 0.20676,0.19468 0.0275,0 0.0524,0.0315 0.078,0.0984 0.0213,0.0558 0.0561,0.10427 0.0803,0.11197 0.0235,0.007 0.0428,0.0228 0.0428,0.0342 0,0.0113 0.0188,0.0206 0.0417,0.0206 0.0266,0 0.0557,0.03 0.0803,0.0828 0.0499,0.10709 0.0975,0.15151 0.1822,0.17011 0.0662,0.0146 0.0701,0.022 0.11696,0.22905 0.0267,0.1177 0.0673,0.24065 0.0903,0.27322 0.0414,0.0587 0.0414,0.0595 -0.008,0.0939 -0.0272,0.0191 -0.0418,0.0347 -0.0323,0.0347 0.009,0 0.002,0.0221 -0.0172,0.0491 -0.0189,0.027 -0.0344,0.0652 -0.0344,0.085 0,0.0432 -0.0683,0.10898 -0.11308,0.10898 -0.0533,0 -0.19247,0.0795 -0.29656,0.16947 -0.2459,0.21251 -0.58011,0.58041 -0.6379,0.7022 -0.0319,0.0671 -0.41866,0.47061 -0.49845,0.51992 -0.0111,0.007 -0.0343,0.0397 -0.0516,0.073 -0.0173,0.0333 -0.075,0.0835 -0.12834,0.11162 -0.0533,0.0281 -0.11924,0.0852 -0.14645,0.12683 -0.0643,0.0983 -0.28164,0.32456 -0.38411,0.3998 -0.0442,0.0324 -0.0989,0.0988 -0.12164,0.14746 -0.0379,0.0812 -0.0526,0.0914 -0.17846,0.12333 -0.14286,0.0363 -0.19429,0.0384 -0.36004,0.0147 z"
       style="opacity:0;fill:#ffcc00;fill-opacity:1;stroke:#ca990f;stroke-width:0.13069479;stroke-miterlimit:10;stroke-dasharray:none;stroke-opacity:1" />
    <path
       id="path1067"
       d="m 103.15234,151.31483 c -0.10537,-0.009 -0.15922,-0.0242 -0.17833,-0.0504 -0.0151,-0.0206 -0.11856,-0.0819 -0.22999,-0.13609 l -0.20261,-0.0986 -0.10986,-0.21192 c -0.0604,-0.11656 -0.1047,-0.21192 -0.0984,-0.21192 0.006,0 -0.004,-0.0221 -0.0229,-0.0491 -0.0189,-0.027 -0.0344,-0.0671 -0.0344,-0.0891 0,-0.0623 -0.0993,-0.24178 -0.17195,-0.3107 -0.0641,-0.0608 -0.10861,-0.0752 -0.27356,-0.0884 -0.0445,-0.004 -0.0942,-0.0166 -0.11048,-0.0291 -0.0162,-0.0124 -0.0786,-0.0506 -0.1385,-0.0849 -0.0599,-0.0343 -0.14539,-0.10062 -0.18992,-0.14743 -0.0445,-0.0468 -0.0972,-0.0851 -0.11701,-0.0851 -0.0198,0 -0.0527,-0.0273 -0.073,-0.0608 -0.0203,-0.0334 -0.0926,-0.11595 -0.1607,-0.18339 -0.17758,-0.17597 -0.25567,-0.27832 -0.40564,-0.53161 -0.073,-0.12332 -0.15062,-0.22889 -0.17247,-0.2346 -0.0554,-0.0145 -0.0663,-0.0568 -0.0308,-0.11887 0.0167,-0.0291 0.0404,-0.0753 0.0528,-0.1026 0.0124,-0.0273 0.0327,-0.0497 0.0451,-0.0497 0.0125,0 0.0202,-0.0124 0.0171,-0.0276 -0.003,-0.0152 0.006,-0.0255 0.0195,-0.023 0.0137,0.003 0.0426,-0.0148 0.0642,-0.0387 0.0216,-0.0238 0.0501,-0.0436 0.0634,-0.044 0.0133,-2.7e-4 0.0467,-0.0277 0.0741,-0.0608 0.0979,-0.11788 0.20415,-0.2677 0.20415,-0.28801 0,-0.0113 0.0346,-0.0584 0.0768,-0.10449 0.0422,-0.0461 0.0933,-0.13436 0.11342,-0.19611 0.0242,-0.0741 0.0659,-0.13858 0.12268,-0.1896 0.0473,-0.0425 0.10816,-0.11214 0.13516,-0.15467 0.0364,-0.0573 0.0663,-0.0785 0.11538,-0.0819 0.14796,-0.0101 0.2662,-0.0332 0.29583,-0.0578 0.0172,-0.0143 0.0351,-0.0228 0.0398,-0.0189 0.005,0.004 0.0503,-0.0138 0.10155,-0.0393 0.0647,-0.0323 0.13021,-0.0973 0.21466,-0.21307 0.25391,-0.34807 0.34853,-0.45099 0.4979,-0.54152 0.0664,-0.0403 0.12078,-0.081 0.12078,-0.0906 0,-0.01 0.0118,-0.0174 0.0262,-0.0174 0.0144,0 0.0467,-0.019 0.0718,-0.0421 0.0739,-0.0681 0.36022,-0.14359 0.62816,-0.16551 0.0306,-0.002 0.0784,0.0202 0.11546,0.0548 0.0348,0.0325 0.11069,0.0811 0.16871,0.10799 0.058,0.0269 0.13035,0.0762 0.16073,0.10953 0.0796,0.0873 0.17391,0.1471 0.28402,0.18003 0.0529,0.0158 0.0992,0.0393 0.10286,0.0522 0.0684,0.24073 0.0884,0.2832 0.1699,0.36037 0.0206,0.0195 0.0328,0.0433 0.0269,0.0527 -0.006,0.009 0.0151,0.034 0.0465,0.0546 0.0314,0.0206 0.0707,0.0639 0.0875,0.0962 0.0167,0.0323 0.12559,0.15554 0.24193,0.27378 0.11633,0.11824 0.21152,0.22951 0.21152,0.24727 0,0.0178 0.008,0.0323 0.0185,0.0323 0.0102,0 0.0375,0.0397 0.0608,0.0881 0.0232,0.0485 0.0497,0.0882 0.0588,0.0884 0.009,1.4e-4 0.0166,0.0102 0.0166,0.0223 0,0.0293 0.15904,0.25188 0.18754,0.26241 0.0123,0.005 0.0729,0.0617 0.13462,0.12705 0.0617,0.0653 0.12637,0.11894 0.14362,0.11912 0.0261,2.7e-4 0.0264,0.004 10e-4,0.0194 -0.0254,0.0161 -0.0254,0.0207 0,0.0292 0.0254,0.009 0.0254,0.0159 -2e-4,0.0469 -0.0167,0.0202 -0.0212,0.0367 -0.01,0.0367 0.0247,0 0.0246,0.13258 -8e-5,0.17144 -0.01,0.0153 -0.0114,0.0476 -0.004,0.0718 0.008,0.0252 0.004,0.044 -0.01,0.044 -0.013,0 -0.0236,0.03 -0.0236,0.0668 0,0.0498 -0.014,0.0732 -0.0554,0.092 -0.032,0.0146 -0.0786,0.0727 -0.1105,0.13788 -0.0303,0.0619 -0.0867,0.13738 -0.12532,0.16763 -0.0386,0.0302 -0.0908,0.079 -0.11599,0.10834 -0.0252,0.0293 -0.11196,0.11884 -0.19285,0.19886 -0.11432,0.11309 -0.15257,0.16765 -0.17173,0.24493 -0.036,0.14541 -0.0475,0.15819 -0.17958,0.20083 -0.0924,0.0298 -0.14457,0.0657 -0.22486,0.15478 -0.0575,0.0638 -0.12038,0.15652 -0.13969,0.20609 -0.0222,0.0569 -0.0745,0.1214 -0.14208,0.17505 -0.0588,0.0467 -0.17924,0.17607 -0.26758,0.28746 -0.0883,0.1114 -0.19075,0.22233 -0.22758,0.24651 -0.0574,0.0377 -0.14903,0.14834 -0.17208,0.2078 -0.0101,0.026 -0.26836,0.041 -0.4452,0.0259 z"
       style="opacity:0;fill:#ffcc00;fill-opacity:1;stroke:#ca990f;stroke-width:0.13069479;stroke-miterlimit:10;stroke-dasharray:none;stroke-opacity:1" />
    <path
       id="path1069"
       d="m 101.31824,150.28195 -1.896657,-1.80432 1.824827,-1.82483 1.82484,-1.82483 1.845,1.8449 c 1.01475,1.0147 1.845,1.85489 1.845,1.8671 0,0.0217 -3.51373,3.54637 -3.53535,3.54632 -0.006,-2e-5 -0.8645,-0.81197 -1.90766,-1.80434 z m 3.50406,-0.13447 c 0.87198,-0.87191 1.58542,-1.5953 1.58542,-1.60751 0,-0.0122 -0.7507,-0.77287 -1.66824,-1.69034 l -1.66824,-1.66813 -1.64738,1.64739 -1.647379,1.64738 1.708159,1.62707 c 0.93949,0.8949 1.71808,1.62761 1.7302,1.62826 0.0121,5.3e-4 0.73548,-0.7122 1.60746,-1.58412 z"
       style="opacity:0;fill:#ffcc00;fill-opacity:1;stroke:#ca990f;stroke-width:0.13069479;stroke-miterlimit:10;stroke-dasharray:none;stroke-opacity:1" />
    <path
       id="path1071"
       d="m 103.9228,153.10791 c -0.006,-0.0154 -0.0359,-0.0375 -0.0666,-0.0492 -0.0307,-0.0117 -0.0558,-0.0314 -0.0558,-0.0439 0,-0.0125 -0.0149,-0.0226 -0.0332,-0.0226 -0.0323,0 -0.12515,-0.0774 -0.11047,-0.0921 0.0121,-0.0121 -0.11214,-0.005 -0.13427,0.008 -0.0112,0.006 -0.0428,0.01 -0.0701,0.007 -0.0273,-0.002 -0.0497,0.005 -0.0497,0.0164 0,0.0114 -0.0146,0.0152 -0.0324,0.008 -0.0178,-0.007 -0.0379,-0.004 -0.0446,0.007 -0.007,0.0108 -0.0528,-0.007 -0.10258,-0.0396 -0.0498,-0.0326 -0.0993,-0.0605 -0.11012,-0.062 -0.0108,-0.002 -0.0302,-0.004 -0.0431,-0.006 -0.0129,-0.002 -0.0162,-0.0144 -0.007,-0.0286 0.0105,-0.017 0.004,-0.0213 -0.0181,-0.0128 -0.0187,0.007 -0.0436,0.004 -0.0553,-0.008 -0.0261,-0.0261 -0.18752,-0.0585 -0.31012,-0.0622 -0.0273,-7.9e-4 -0.0485,-0.009 -0.0471,-0.0181 0.009,-0.0585 -0.0103,-0.0967 -0.0634,-0.12412 -0.0591,-0.0305 -0.15658,-0.0325 -0.20248,-0.004 -0.0125,0.008 -0.0273,-0.009 -0.033,-0.0366 -0.006,-0.0278 -0.0155,-0.0757 -0.0219,-0.1063 -0.0128,-0.0617 -0.0566,-0.1106 -0.18769,-0.20947 -0.0483,-0.0365 -0.091,-0.0802 -0.0948,-0.0972 -0.004,-0.0176 -0.0404,-0.0337 -0.0843,-0.0374 -0.0913,-0.008 -0.16925,-0.0238 -0.19644,-0.0406 -0.0263,-0.0163 -0.0656,0.0341 -0.0777,0.0997 -0.005,0.0294 -0.0118,0.056 -0.0143,0.059 -0.007,0.009 -0.0152,0.0467 -0.0182,0.0841 -0.003,0.0366 -0.13147,0.16447 -0.1653,0.16447 -0.0307,0 -0.12464,-0.11704 -0.12467,-0.15528 -2e-5,-0.0186 -0.0174,-0.0505 -0.0387,-0.0711 -0.0778,-0.075 -0.10883,-0.11767 -0.13711,-0.18849 -0.0159,-0.0398 -0.044,-0.0808 -0.0625,-0.0912 -0.0208,-0.0116 -0.028,-0.0335 -0.0189,-0.0572 0.0125,-0.0324 0.0202,-0.0339 0.05,-0.009 0.0416,0.0345 0.2081,0.0406 0.24164,0.009 0.0275,-0.0261 0.0625,-0.10339 0.0575,-0.12705 -0.002,-0.009 0.007,-0.0166 0.0199,-0.0166 0.0129,0 0.0177,-0.009 0.0107,-0.0206 -0.007,-0.0113 -0.004,-0.0263 0.008,-0.0332 0.0113,-0.007 0.0177,-0.0599 0.0142,-0.11753 -0.0118,-0.19778 -0.057,-0.33048 -0.10282,-0.30216 -0.0108,0.007 -0.0196,0.001 -0.0196,-0.0126 0,-0.0136 -0.01,-0.0185 -0.0221,-0.0111 -0.0121,0.008 -0.0221,0.003 -0.0221,-0.01 0,-0.0129 -0.008,-0.0213 -0.0166,-0.0187 -0.009,0.003 -0.0396,-0.008 -0.0677,-0.0236 -0.0281,-0.0156 -0.0718,-0.0323 -0.0971,-0.0372 -0.0992,-0.0191 -0.19403,-0.0588 -0.183,-0.0767 0.006,-0.0103 -0.0234,-0.0314 -0.0661,-0.0469 -0.0427,-0.0154 -0.0777,-0.0377 -0.0777,-0.0494 0,-0.0117 -0.006,-0.015 -0.0141,-0.007 -0.0186,0.0186 -0.13397,-0.0613 -0.27293,-0.189 -0.0364,-0.0334 -0.0768,-0.0608 -0.0897,-0.0608 -0.013,0 -0.0175,-0.01 -0.01,-0.0221 0.008,-0.0121 0.004,-0.0221 -0.009,-0.0221 -0.0339,0 -0.1271,-0.0938 -0.14273,-0.14363 -0.0185,-0.0589 -0.11606,-0.0994 -0.26709,-0.11104 -0.142942,-0.011 -0.358646,-0.10727 -0.378188,-0.16885 -0.0072,-0.0226 -0.02156,-0.0359 -0.03197,-0.0294 -0.0104,0.006 -0.02461,-0.006 -0.03159,-0.0283 -0.007,-0.022 -0.04498,-0.0751 -0.08445,-0.11816 -0.07892,-0.086 -0.113477,-0.13479 -0.15453,-0.21816 -0.03321,-0.0674 -0.06297,-0.10013 -0.103423,-0.11361 -0.01691,-0.006 -0.0343,-0.0337 -0.03868,-0.0624 -0.01132,-0.0741 -0.09334,-0.19964 -0.130469,-0.19964 -0.01725,0 -0.03134,-0.0108 -0.03134,-0.0239 0,-0.0132 -0.01148,-0.0201 -0.02548,-0.0155 -0.05072,0.0169 -0.118028,-0.0817 -0.121492,-0.17798 -0.0019,-0.0513 -0.01418,-0.10632 -0.02743,-0.12228 -0.01323,-0.016 -0.01754,-0.0355 -0.0095,-0.0435 0.008,-0.008 0.0029,-0.0145 -0.01124,-0.0145 -0.01418,0 -0.02577,-0.0149 -0.02577,-0.0332 0,-0.0182 -0.0097,-0.0331 -0.02154,-0.0331 -0.04851,0 -0.122962,-0.20213 -0.09318,-0.25299 0.02447,-0.0418 0.0177,-0.13477 -0.01331,-0.1834 -0.01974,-0.0309 -0.02267,-0.0497 -0.0078,-0.0497 0.01326,0 0.01765,-0.0164 0.0098,-0.0368 -0.0095,-0.0247 -0.0056,-0.0315 0.01175,-0.0208 0.02283,0.0141 0.0355,-0.0109 0.02892,-0.0571 -0.0013,-0.008 0.01741,-0.0214 0.04134,-0.029 0.03753,-0.0119 0.04255,-0.0304 0.03652,-0.13498 -0.0038,-0.0667 0.0013,-0.12625 0.01127,-0.13246 0.01005,-0.006 0.01826,-0.071 0.01826,-0.14387 0,-0.0828 0.0083,-0.12744 0.02209,-0.11892 0.01214,0.008 0.02209,0.004 0.02209,-0.008 0,-0.012 0.05937,-0.0579 0.13193,-0.10195 0.137078,-0.0833 0.199112,-0.15271 0.237249,-0.26556 0.02904,-0.0859 0.119814,-0.22326 0.21064,-0.31865 0.0396,-0.0416 0.06908,-0.0888 0.06551,-0.10496 -0.0036,-0.0161 0.0039,-0.0293 0.01656,-0.0293 0.01267,0 0.02307,-0.0205 0.02307,-0.0455 0,-0.025 0.0087,-0.0401 0.01937,-0.0335 0.01799,0.0111 0.07262,-0.0386 0.211947,-0.19279 0.03076,-0.034 0.05593,-0.0559 0.05593,-0.0486 0,0.007 0.02241,-0.0109 0.04982,-0.0404 0.0274,-0.0296 0.102362,-0.0847 0.166586,-0.1226 0.12184,-0.0718 0.15209,-0.0937 0.23645,-0.17072 0.028,-0.0256 0.0658,-0.0522 0.0839,-0.0592 0.0182,-0.007 0.061,-0.0507 0.0953,-0.0971 0.12244,-0.16606 0.3606,-0.42686 0.38985,-0.42691 0.009,-1e-5 0.0166,-0.0146 0.0166,-0.0325 0,-0.0193 0.013,-0.0275 0.032,-0.0202 0.024,0.009 0.0296,-10e-4 0.0222,-0.0421 -0.008,-0.0463 7.9e-4,-0.0569 0.0619,-0.0713 0.0395,-0.009 0.0767,-0.0188 0.0828,-0.0212 0.13995,-0.0543 0.22571,-0.12821 0.2066,-0.17801 -0.008,-0.0205 0.007,-0.027 0.0509,-0.0222 0.0749,0.008 0.14676,-0.017 0.20034,-0.0702 0.0219,-0.0217 0.0695,-0.0633 0.10583,-0.0923 0.0417,-0.0333 0.0558,-0.0564 0.0383,-0.0626 -0.0153,-0.005 -0.0212,-0.0205 -0.0132,-0.0335 0.008,-0.013 -0.004,-0.037 -0.0262,-0.0533 -0.0224,-0.0164 -0.0323,-0.0298 -0.022,-0.0298 0.0103,0 0.002,-0.0182 -0.0179,-0.0404 -0.0344,-0.038 -0.0334,-0.0422 0.0159,-0.0685 0.0494,-0.0265 0.14646,-0.18642 0.14646,-0.24147 0,-0.0139 0.0107,-0.0252 0.0237,-0.0252 0.013,0 0.008,-0.0156 -0.011,-0.0347 -0.0191,-0.0191 -0.0347,-0.048 -0.0347,-0.0643 0,-0.0203 -0.0295,-0.0292 -0.0939,-0.0283 -0.16824,0.002 -0.20802,-0.004 -0.1723,-0.0263 0.0177,-0.0112 0.0392,-0.0159 0.0478,-0.0106 0.009,0.005 0.0472,-0.0301 0.0858,-0.0788 0.0386,-0.0487 0.0842,-0.0885 0.10137,-0.0885 0.0172,0 0.0313,-0.0108 0.0313,-0.0241 0,-0.0133 0.0193,-0.0406 0.0428,-0.0608 0.0236,-0.0202 0.0797,-0.10629 0.1248,-0.19136 0.0766,-0.14454 0.35245,-0.46187 0.38437,-0.44215 0.0246,0.0152 0.13499,-0.0865 0.14347,-0.13234 0.004,-0.0243 0.01,-0.0442 0.0117,-0.0442 0.002,0 0.008,-0.0289 0.014,-0.0643 0.0108,-0.0662 0.0506,-0.13739 0.0798,-0.14263 0.009,-0.002 0.0273,-0.003 0.0405,-0.003 0.0132,0 0.0592,-0.0363 0.10223,-0.0806 0.0628,-0.0646 0.10674,-0.0866 0.22175,-0.11069 0.18963,-0.0397 0.28095,-0.0854 0.35807,-0.17895 0.0587,-0.0712 0.0689,-0.0754 0.12993,-0.0542 0.0364,0.0127 0.0721,0.0173 0.0792,0.0102 0.007,-0.007 0.0129,-0.001 0.0129,0.0129 0,0.0142 0.007,0.0246 0.0166,0.0231 0.0461,-0.007 0.0677,0.01 0.11193,0.0885 0.0541,0.0962 0.0578,0.15474 0.0169,0.26767 -0.0328,0.0905 -0.0951,0.10284 -0.20063,0.0398 -0.0828,-0.0495 -0.23201,-0.054 -0.23201,-0.007 0,0.018 -0.024,0.0387 -0.0533,0.0461 -0.0318,0.008 -0.0587,0.0349 -0.0667,0.0667 -0.007,0.0293 -0.0237,0.0533 -0.0364,0.0533 -0.0126,0 -0.0168,0.01 -0.009,0.0221 0.008,0.0121 0.003,0.0221 -0.01,0.0221 -0.0129,0 -0.0234,0.0149 -0.0234,0.0331 0,0.0182 -0.0116,0.0332 -0.0258,0.0332 -0.0142,0 -0.0197,0.006 -0.0123,0.0135 0.0263,0.0263 -0.11236,0.11906 -0.17787,0.11906 -0.0362,0 -0.0773,0.0137 -0.0912,0.0305 -0.0251,0.0302 -0.14752,0.0683 -0.19002,0.059 -0.0121,-0.003 -0.0147,0.003 -0.006,0.0116 0.009,0.009 0.007,0.0272 -0.004,0.0405 -0.0109,0.0133 -0.0268,0.10053 -0.0352,0.1939 l -0.0153,0.16978 0.0788,0.0788 c 0.0433,0.0433 0.0866,0.079 0.0961,0.0792 0.01,2.1e-4 0.0407,0.0251 0.0693,0.0552 0.0459,0.0484 0.0694,0.0546 0.19886,0.0522 0.21315,-0.004 0.25829,-0.0198 0.32218,-0.11437 0.0312,-0.0461 0.0567,-0.0888 0.0567,-0.0948 0,-0.027 0.0972,-0.13892 0.1124,-0.12951 0.009,0.006 0.0229,-0.008 0.0301,-0.0309 0.009,-0.0278 0.0305,-0.0395 0.0659,-0.0356 0.0524,0.006 0.18613,-0.0698 0.26193,-0.14798 0.0217,-0.0224 0.0479,-0.0408 0.0582,-0.0408 0.0103,0 0.0232,-0.0174 0.0288,-0.0387 0.0162,-0.062 0.25998,-0.0487 0.41671,0.0228 0.1394,0.0635 0.39587,0.30402 0.39587,0.37116 0,0.0233 0.008,0.0424 0.0171,0.0424 0.009,0 0.0358,0.0348 0.0587,0.0773 0.0229,0.0425 0.0495,0.0773 0.059,0.0773 0.01,0 0.0552,0.0351 0.10148,0.078 0.0463,0.0429 0.12531,0.10446 0.1757,0.13676 0.0504,0.0323 0.10712,0.085 0.12607,0.11706 0.0307,0.052 0.10239,0.13576 0.26435,0.30892 0.0284,0.0304 0.0969,0.0777 0.15221,0.10515 0.0553,0.0275 0.12367,0.0837 0.15195,0.12495 0.0283,0.0413 0.0792,0.0915 0.11319,0.11153 0.034,0.0201 0.0618,0.0449 0.0618,0.0553 0,0.024 -0.0854,0.003 -0.14643,-0.0367 -0.0373,-0.024 -0.0589,-0.0249 -0.10409,-0.004 -0.0528,0.024 -0.0561,0.0337 -0.0435,0.12781 0.008,0.056 0.022,0.10512 0.0323,0.10917 0.0103,0.004 0.0187,0.0222 0.0187,0.0402 0,0.0392 0.0554,0.0995 0.0742,0.0807 0.007,-0.007 0.0194,0.003 0.027,0.023 0.008,0.0199 0.0245,0.0296 0.0374,0.0216 0.0153,-0.009 0.018,0 0.008,0.0271 -0.009,0.0229 -0.009,0.0349 -10e-4,0.0268 0.0149,-0.0149 0.0759,0.0337 0.0759,0.0604 0,0.008 -0.0161,0.0303 -0.0358,0.05 -0.033,0.033 -0.0322,0.0387 0.0101,0.073 0.0253,0.0205 0.0398,0.0433 0.0323,0.0508 -0.007,0.007 -0.029,0.001 -0.0479,-0.0138 -0.0214,-0.0171 -0.0173,-0.002 0.0109,0.0389 0.0249,0.0365 0.0515,0.0837 0.0592,0.10496 0.0129,0.0358 0.0526,0.0491 0.12029,0.0403 0.0152,-0.002 0.0276,0.008 0.0276,0.0224 0,0.0143 0.0174,0.0422 0.0387,0.062 0.0213,0.0198 0.05,0.0558 0.0638,0.0799 0.0138,0.0241 0.0412,0.0425 0.0608,0.0408 0.0196,-0.002 0.0356,0.005 0.0356,0.0146 0,0.0204 0.0434,0.0167 0.0813,-0.007 0.0321,-0.0201 0.0597,0.0192 0.0381,0.0541 -0.009,0.0148 -0.006,0.0195 0.007,0.0113 0.0126,-0.008 0.0476,0.005 0.0778,0.029 0.0302,0.0237 0.0609,0.0371 0.0684,0.0297 0.007,-0.007 0.0195,0.002 0.0269,0.0214 0.008,0.0204 0.0275,0.0295 0.0474,0.0219 0.0196,-0.008 0.0428,0.003 0.0548,0.024 0.0114,0.0204 0.0317,0.0302 0.0452,0.0219 0.0153,-0.009 0.0197,-0.003 0.0117,0.0182 -0.0105,0.0275 0.0132,0.034 0.13434,0.0373 0.12738,0.003 0.15307,0.0112 0.19133,0.0586 0.0243,0.0301 0.0864,0.10192 0.1381,0.15966 0.0873,0.0976 0.0939,0.11389 0.0939,0.2313 0,0.15454 0.0217,0.17043 0.2576,0.18827 0.10114,0.008 0.1539,0.0197 0.13608,0.0309 -0.0191,0.0121 -0.004,0.0186 0.0425,0.0188 0.11546,5.3e-4 0.3321,0.18029 0.39321,0.32625 0.0165,0.0395 0.0405,0.0718 0.0533,0.0718 0.0128,0 0.0232,0.0133 0.0232,0.0296 0,0.0163 0.0206,0.0536 0.0457,0.0829 0.0251,0.0293 0.0798,0.093 0.12151,0.1416 0.0417,0.0486 0.0758,0.10578 0.0758,0.12705 1e-5,0.0213 0.0106,0.0387 0.0234,0.0387 0.0129,0 0.0173,0.01 0.01,0.0221 -0.008,0.0121 -0.003,0.0221 0.0111,0.0221 0.0136,0 0.0186,0.01 0.0112,0.0218 -0.008,0.013 0.002,0.0159 0.0244,0.007 0.0257,-0.01 0.0328,-0.006 0.0219,0.0113 -0.01,0.0155 -0.002,0.0259 0.0185,0.0259 0.0189,0 0.0323,0.007 0.0297,0.0166 -0.003,0.009 0.008,0.0389 0.0229,0.0663 0.0152,0.0273 0.0219,0.0497 0.015,0.0497 -0.007,0 -0.001,0.0217 0.0132,0.0482 0.024,0.0449 -0.0398,0.11345 -0.92604,0.99431 -0.88506,0.8797 -0.95718,0.94608 -1.02802,0.94608 -0.0473,0 -0.081,-0.0125 -0.0889,-0.0331 -0.007,-0.0182 -0.0271,-0.0331 -0.0447,-0.0331 -0.0176,0 -0.037,-0.0124 -0.0432,-0.0276 -0.008,-0.0211 -0.0156,-0.0214 -0.0299,-0.001 -0.0103,0.0144 -0.0696,0.0329 -0.1319,0.0412 -0.0845,0.0112 -0.13488,0.0341 -0.19845,0.0903 -0.0469,0.0414 -0.14288,0.10653 -0.21336,0.14476 -0.1235,0.067 -0.22811,0.17358 -0.19895,0.20275 0.008,0.008 0.004,0.0141 -0.009,0.0141 -0.0343,0 -0.0857,0.14225 -0.0931,0.25759 -7.9e-4,0.0141 -0.0464,0.0538 -0.10103,0.0884 -0.0975,0.0616 -0.10594,0.0782 -0.10741,0.21194 -2.6e-4,0.0334 -0.006,0.0618 -0.0129,0.0631 -0.0185,0.004 -0.15946,0.0146 -0.22218,0.0174 -0.0304,0.001 -0.0894,0.0317 -0.13123,0.0674 -0.0418,0.0357 -0.0841,0.06 -0.0939,0.0539 -0.01,-0.006 -0.0179,0.001 -0.0179,0.016 0,0.0149 -0.006,0.0206 -0.0144,0.0126 -0.008,-0.008 -0.0353,0.0128 -0.0608,0.046 -0.0563,0.0735 -0.0809,0.0796 -0.1584,0.0394 -0.09,-0.0467 -0.12775,0.002 -0.12266,0.15728 0.002,0.0669 0.005,0.12824 0.007,0.13632 0.006,0.0284 -0.0338,0.14807 -0.0759,0.2293 -0.0247,0.0478 -0.0455,0.14006 -0.0497,0.22096 -0.0152,0.29294 -0.0294,0.32435 -0.22835,0.50358 -0.11627,0.10478 -0.147,0.12145 -0.22374,0.12145 -0.0513,0 -0.0935,-0.0118 -0.0997,-0.028 z m -0.49894,-0.53429 c 0.038,-0.048 0.0868,-0.0928 0.1084,-0.0997 0.0216,-0.007 0.0619,-0.0526 0.0894,-0.10159 0.0275,-0.049 0.0865,-0.11223 0.13098,-0.14051 0.0445,-0.0283 0.10018,-0.073 0.12373,-0.0993 0.0236,-0.0263 0.086,-0.0669 0.13873,-0.0903 0.16649,-0.0737 0.45364,-0.37837 0.81974,-0.86991 0.12205,-0.16386 0.40741,-0.46663 0.50615,-0.53702 0.0312,-0.0223 0.14739,-0.12999 0.25808,-0.23936 0.12508,-0.12359 0.27616,-0.24486 0.39913,-0.32039 0.29423,-0.18071 0.64634,-0.5544 0.70786,-0.75125 0.009,-0.0304 0.0543,-0.0974 0.0995,-0.14885 0.0831,-0.0946 0.12289,-0.20254 0.17725,-0.48087 0.0211,-0.1082 0.0407,-0.14571 0.10654,-0.20396 0.0444,-0.0393 0.0881,-0.0716 0.0972,-0.0718 0.0412,-0.001 0.009,-0.0438 -0.0749,-0.0993 -0.10756,-0.0712 -0.21199,-0.17324 -0.27132,-0.26514 -0.0233,-0.0361 -0.0505,-0.0759 -0.0604,-0.0884 -0.0563,-0.071 -0.26342,-0.39379 -0.31863,-0.49654 -0.0712,-0.1325 -0.27878,-0.35113 -0.43093,-0.45386 -0.20044,-0.13534 -0.39325,-0.29953 -0.50887,-0.43331 -0.0655,-0.0758 -0.16391,-0.1839 -0.2186,-0.24012 -0.0547,-0.0562 -0.12365,-0.1316 -0.15326,-0.16751 -0.10169,-0.12333 -0.32197,-0.36809 -0.46108,-0.51232 -0.0766,-0.0794 -0.17853,-0.20025 -0.22649,-0.26849 -0.29345,-0.41758 -0.37976,-0.48749 -0.77215,-0.6254 -0.13887,-0.0488 -0.21222,-0.0897 -0.28145,-0.15678 -0.0808,-0.0784 -0.1109,-0.0927 -0.22026,-0.10472 -0.11346,-0.0125 -0.13203,-0.009 -0.17847,0.0379 -0.0285,0.0285 -0.0707,0.0944 -0.0936,0.14632 -0.0377,0.0853 -0.0618,0.10437 -0.24715,0.19604 -0.21453,0.1061 -0.30064,0.18118 -1.02308,0.89196 -0.15841,0.15584 -0.27171,0.24628 -0.37953,0.30294 -0.22679,0.11918 -0.46901,0.36603 -0.76364,0.77826 -0.0708,0.099 -0.1028,0.123 -0.22096,0.16539 -0.21334,0.0765 -0.28606,0.16045 -0.408527,0.47137 -0.02802,0.0712 -0.08101,0.13428 -0.188399,0.22448 -0.08217,0.069 -0.165444,0.15651 -0.185045,0.19441 -0.04501,0.0871 -0.14047,0.36618 -0.141004,0.41232 -2.2e-4,0.0191 -0.03099,0.0796 -0.06838,0.13423 -0.06009,0.0879 -0.06667,0.1126 -0.05669,0.21295 0.0149,0.14985 0.06407,0.23964 0.16672,0.30444 0.0463,0.0292 0.117834,0.10623 0.158972,0.17112 0.181718,0.28666 0.309877,0.43856 0.424915,0.50364 0.136838,0.0774 0.453368,0.30719 0.475268,0.34502 0.008,0.0147 0.0602,0.0635 0.11486,0.10862 0.0547,0.0451 0.16903,0.1455 0.2541,0.22313 0.0851,0.0776 0.21898,0.18356 0.2976,0.23538 0.11345,0.0748 0.14348,0.10635 0.14563,0.15304 0.003,0.0696 0.0496,0.12151 0.1255,0.14057 0.0302,0.008 0.11007,0.0799 0.17801,0.16128 0.0678,0.0811 0.14444,0.16244 0.17042,0.18067 0.026,0.0182 0.15466,0.15302 0.28597,0.29953 0.15802,0.17633 0.2441,0.29081 0.2546,0.3386 0.0223,0.1015 0.13244,0.2183 0.2348,0.24897 0.10864,0.0326 0.2394,0.14353 0.35756,0.30347 0.1165,0.15771 0.18563,0.22143 0.25718,0.23706 0.0313,0.007 0.0669,0.0158 0.0791,0.0198 0.0841,0.0281 0.14348,0.006 0.20895,-0.0763 z m -0.88058,-8.16103 c -0.0284,-0.0284 -0.0571,-0.006 -0.0361,0.0275 0.008,0.0131 0.0249,0.0177 0.0373,0.01 0.0151,-0.009 0.0147,-0.0217 -0.001,-0.0376 z m -0.22014,-0.30608 c -0.03,-0.0351 -0.0356,-0.0352 -0.0806,-10e-4 -0.0405,0.0306 -0.0435,0.0413 -0.0186,0.0662 0.0164,0.0164 0.0298,0.0413 0.0298,0.0553 0,0.0141 0.0229,0.001 0.0508,-0.0286 0.0452,-0.0482 0.0472,-0.0583 0.0186,-0.0918 z"
       style="opacity:0;fill:#ffcc00;fill-opacity:1;stroke:#ca990f;stroke-width:0.13069479;stroke-miterlimit:10;stroke-dasharray:none;stroke-opacity:1" />
    <path
       id="path1073"
       d="m 103.00499,151.16512 c -0.0668,-0.0351 -0.16829,-0.0815 -0.22544,-0.10306 -0.0572,-0.0216 -0.10929,-0.056 -0.11586,-0.0764 -0.007,-0.0205 -0.0465,-0.076 -0.0887,-0.12328 -0.11189,-0.12545 -0.16446,-0.30715 -0.17167,-0.59341 -0.003,-0.13064 0.002,-0.23753 0.0109,-0.23753 0.009,1e-5 7.9e-4,-0.0373 -0.0189,-0.0829 -0.0197,-0.0456 -0.0372,-0.10203 -0.039,-0.12547 -0.004,-0.0572 -0.11123,-0.0842 -0.21878,-0.0553 -0.0461,0.0124 -0.095,0.0156 -0.10874,0.007 -0.0162,-0.01 -0.0188,-0.005 -0.008,0.0129 0.0118,0.019 0.007,0.0248 -0.0131,0.0174 -0.0169,-0.006 -0.0487,-0.002 -0.0708,0.01 -0.0221,0.0113 -0.0618,0.0255 -0.0884,0.0315 -0.0845,0.0189 -0.0907,0.0211 -0.1915,0.0684 -0.11321,0.053 -0.14267,0.0445 -0.22679,-0.0658 -0.0311,-0.0407 -0.0965,-0.0921 -0.14546,-0.11418 -0.0565,-0.0255 -0.0987,-0.0635 -0.11554,-0.10422 -0.0146,-0.0352 -0.0537,-0.087 -0.087,-0.11492 -0.067,-0.0564 -0.18321,-0.28431 -0.2357,-0.46235 -0.0188,-0.0636 -0.0434,-0.12704 -0.0547,-0.14095 -0.0114,-0.0139 -0.0187,-0.0338 -0.0163,-0.0442 0.002,-0.0104 -0.002,-0.0363 -0.0103,-0.0576 l -0.0291,-0.0773 c -0.008,-0.0213 -0.013,-0.0461 -0.0111,-0.0552 0.002,-0.009 -0.009,-0.0169 -0.0241,-0.0173 -0.0192,-5.3e-4 -0.0176,-0.009 0.005,-0.0276 0.0182,-0.0148 0.0693,-0.0717 0.1134,-0.12634 0.0442,-0.0547 0.11566,-0.13564 0.15892,-0.17989 0.0433,-0.0442 0.0726,-0.0865 0.0652,-0.0939 -0.007,-0.007 -2e-4,-0.0134 0.016,-0.0134 0.0162,0 0.023,-0.006 0.0152,-0.0143 -0.008,-0.008 0.004,-0.0501 0.0271,-0.0939 0.0228,-0.0438 0.0524,-0.1325 0.0658,-0.19715 0.0134,-0.0647 0.0369,-0.13055 0.0521,-0.14644 0.0152,-0.0159 0.0426,-0.0516 0.0608,-0.0795 0.0182,-0.0278 0.0693,-0.0887 0.11342,-0.13528 0.0788,-0.0832 0.0831,-0.0847 0.24305,-0.085 0.19448,-2.6e-4 0.37426,-0.0444 0.47574,-0.11657 0.0787,-0.056 0.22838,-0.25092 0.22838,-0.29739 0,-0.0152 0.01,-0.0277 0.0221,-0.0277 0.0121,0 0.0221,-0.0146 0.0221,-0.0324 0,-0.11445 0.31472,-0.48098 0.46539,-0.542 0.0418,-0.0169 0.0809,-0.0368 0.087,-0.0443 0.006,-0.007 0.0558,-0.036 0.11048,-0.0634 0.0547,-0.0274 0.12564,-0.0642 0.15768,-0.0816 0.0694,-0.0378 0.32714,-0.0533 0.3991,-0.0239 0.028,0.0114 0.0643,0.0236 0.0808,0.0269 0.0165,0.003 0.0481,0.0243 0.0701,0.0464 0.0221,0.0222 0.0773,0.0701 0.12266,0.10657 0.19516,0.15677 0.27529,0.25364 0.39547,0.47804 0.0708,0.13226 0.12338,0.20862 0.20617,0.29963 0.0281,0.0309 0.0755,0.0948 0.10523,0.14192 0.0298,0.0472 0.0684,0.0858 0.0859,0.0858 0.0175,0 0.0419,0.0174 0.0543,0.0387 0.0124,0.0213 0.0228,0.0311 0.0232,0.0219 0.001,-0.0241 0.11595,0.0924 0.17473,0.17696 0.0275,0.0395 0.0425,0.0718 0.0335,0.0718 -0.009,0 0.004,0.0224 0.0295,0.0497 0.0252,0.0274 0.0786,0.11259 0.11856,0.18945 0.04,0.0769 0.10807,0.17663 0.15131,0.22175 0.19361,0.20195 0.24815,0.33206 0.24102,0.57492 -0.003,0.0926 -0.0125,0.18424 -0.0219,0.20363 -0.0172,0.0358 -0.0427,0.14102 -0.0464,0.19123 -0.001,0.0152 -0.0145,0.0276 -0.0298,0.0276 -0.0449,0 -0.16232,0.10979 -0.20377,0.19059 -0.0211,0.0411 -0.0711,0.0923 -0.11106,0.11375 -0.04,0.0215 -0.0944,0.0785 -0.121,0.12686 -0.0544,0.0991 -0.0914,0.14329 -0.11963,0.14329 -0.0166,0 -0.14428,0.0975 -0.33424,0.25509 -0.0286,0.0238 -0.0696,0.083 -0.091,0.13158 -0.0383,0.0871 -0.28109,0.40192 -0.3732,0.484 -0.026,0.0232 -0.0472,0.0512 -0.0472,0.0623 0,0.0632 -0.40363,0.48656 -0.47336,0.49649 -0.0252,0.004 -0.12543,0.0126 -0.22266,0.0199 -0.16535,0.0125 -0.1846,0.009 -0.29829,-0.0505 z m -0.50847,-1.59785 c 0.0534,0.0286 0.14837,0.0287 0.16599,1.5e-4 0.008,-0.0121 0.0425,-0.0221 0.0776,-0.0221 0.0391,0 0.0859,-0.0219 0.12022,-0.0562 0.0467,-0.0467 0.0562,-0.077 0.0562,-0.17847 0,-0.10562 -0.009,-0.13099 -0.0646,-0.18681 -0.0594,-0.0594 -0.0774,-0.0646 -0.22287,-0.0646 -0.15559,0 -0.15872,0.001 -0.18331,0.0663 -0.0138,0.0365 -0.0391,0.0663 -0.0562,0.0663 -0.0233,0 -0.028,0.0196 -0.0186,0.0773 0.01,0.0583 0.005,0.0773 -0.0192,0.0773 -0.0474,0 -0.0393,0.10893 0.0148,0.19759 0.0402,0.0659 0.0492,0.071 0.0674,0.0385 0.0161,-0.0288 0.0307,-0.0324 0.0626,-0.0153 z"
       style="opacity:0;fill:#ffcc00;fill-opacity:1;stroke:#ca990f;stroke-width:0.13069479;stroke-miterlimit:10;stroke-dasharray:none;stroke-opacity:1" />
    <path
       id="path1075"
       d="m 103.15069,151.22094 c -0.0596,-0.0114 -0.14911,-0.0441 -0.19886,-0.0729 -0.0498,-0.0287 -0.1317,-0.0643 -0.1821,-0.0791 -0.059,-0.0173 -0.10015,-0.0455 -0.11553,-0.0793 -0.0131,-0.0288 -0.034,-0.0524 -0.0465,-0.0524 -0.0124,0 -0.0226,-0.0119 -0.0226,-0.0264 0,-0.0145 -0.0234,-0.0518 -0.0521,-0.0829 -0.051,-0.0553 -0.12187,-0.2412 -0.13682,-0.35894 -0.004,-0.0327 -0.01,-0.15202 -0.0129,-0.26515 -0.003,-0.11314 -0.017,-0.23057 -0.0313,-0.26094 -0.0143,-0.0304 -0.0221,-0.066 -0.0174,-0.0791 0.0104,-0.0289 -0.1047,-0.0852 -0.12313,-0.0602 -0.007,0.01 -0.0528,0.0189 -0.10143,0.0203 -0.0486,10e-4 -0.11821,0.009 -0.15467,0.0177 -0.0365,0.008 -0.0784,0.0176 -0.0933,0.0207 -0.0148,0.003 -0.0339,0.0125 -0.0423,0.0209 -0.008,0.008 -0.0296,0.0154 -0.047,0.0154 -0.0174,0 -0.0647,0.0157 -0.10502,0.0348 -0.0681,0.0323 -0.0779,0.0319 -0.13591,-0.006 -0.0344,-0.0222 -0.0983,-0.0776 -0.14198,-0.1232 -0.0437,-0.0456 -0.0958,-0.0829 -0.11573,-0.0829 -0.0199,0 -0.061,-0.0391 -0.0912,-0.0869 -0.0302,-0.0478 -0.09,-0.11493 -0.13285,-0.14915 -0.0429,-0.0342 -0.078,-0.0748 -0.078,-0.0901 0,-0.0153 -0.009,-0.0452 -0.0207,-0.0663 -0.045,-0.0833 -0.12884,-0.28467 -0.14247,-0.34218 -0.008,-0.0334 -0.0238,-0.0608 -0.0354,-0.0608 -0.0115,0 -0.0156,-0.0139 -0.009,-0.0309 0.007,-0.017 0.001,-0.0375 -0.0118,-0.0455 -0.013,-0.008 -0.0236,-0.0339 -0.0236,-0.0575 0,-0.0236 -0.0105,-0.0429 -0.0234,-0.0429 -0.0129,0 -0.0179,-0.009 -0.0113,-0.0196 0.007,-0.0108 -0.002,-0.0315 -0.0199,-0.0461 -0.0355,-0.0294 -0.0364,-0.0278 0.10017,-0.17558 0.0433,-0.0469 0.11292,-0.12727 0.15467,-0.17866 0.0418,-0.0514 0.089,-0.10718 0.1051,-0.12398 0.0161,-0.0168 0.0233,-0.0306 0.0162,-0.0306 -0.007,0 0.012,-0.0494 0.0426,-0.10975 0.0306,-0.0603 0.0556,-0.12949 0.0556,-0.15362 0,-0.0552 0.0452,-0.15645 0.0698,-0.15645 0.0102,0 0.0186,-0.013 0.0186,-0.029 0,-0.0159 0.0199,-0.0503 0.0442,-0.0764 0.0243,-0.0261 0.0443,-0.0553 0.0443,-0.0649 5.3e-4,-0.0498 0.15519,-0.11601 0.32024,-0.13692 0.19716,-0.025 0.3996,-0.0799 0.42073,-0.11404 0.008,-0.0123 0.0536,-0.0475 0.10207,-0.0781 0.0506,-0.0319 0.10148,-0.0874 0.11933,-0.13017 0.0171,-0.041 0.0412,-0.0807 0.0536,-0.0883 0.0123,-0.008 0.0224,-0.0332 0.0224,-0.0567 0,-0.0236 0.01,-0.0429 0.0221,-0.0429 0.0121,0 0.0221,-0.0145 0.0221,-0.0322 0,-0.0545 0.1134,-0.22347 0.17993,-0.26804 0.0346,-0.0232 0.0634,-0.0521 0.0639,-0.0643 0.001,-0.0279 0.15212,-0.13315 0.22246,-0.15512 0.0291,-0.009 0.0579,-0.0236 0.064,-0.0322 0.006,-0.009 0.0856,-0.0517 0.17676,-0.0957 0.1599,-0.0773 0.24632,-0.0924 0.47697,-0.0833 0.0638,0.002 0.28934,0.1568 0.31665,0.21663 0.0123,0.027 0.0475,0.0554 0.0782,0.0631 0.0667,0.0168 0.17255,0.1574 0.28963,0.38493 0.0798,0.15501 0.14348,0.24356 0.23605,0.32805 0.0213,0.0194 0.0387,0.046 0.0387,0.0592 0,0.0264 0.13612,0.16514 0.16203,0.16514 0.009,0 0.0383,0.0198 0.0652,0.0441 0.0269,0.0243 0.0777,0.069 0.11291,0.0994 0.0352,0.0304 0.0578,0.0553 0.0502,0.0553 -0.0154,0 0.086,0.19126 0.12896,0.24305 0.0151,0.0182 0.0458,0.0729 0.0682,0.12153 0.0477,0.10339 0.0509,0.10761 0.2024,0.26846 0.0638,0.0677 0.116,0.14191 0.116,0.16486 0,0.0229 0.009,0.0417 0.0192,0.0417 0.016,0 0.0483,0.15364 0.0488,0.232 8e-4,0.14243 -0.0125,0.27067 -0.0307,0.29393 -0.0124,0.0158 -0.0285,0.0655 -0.0358,0.11045 -0.0102,0.0629 -0.029,0.0893 -0.0815,0.11484 -0.0902,0.0438 -0.13561,0.0924 -0.17518,0.18707 -0.0179,0.043 -0.0459,0.0781 -0.062,0.0781 -0.0432,0 -0.21306,0.17899 -0.21306,0.22454 0,0.0215 -0.0211,0.0503 -0.0468,0.0641 -0.0737,0.0394 -0.30635,0.22067 -0.38758,0.30189 -0.0406,0.0406 -0.0738,0.0933 -0.0738,0.11703 0,0.0413 -0.11833,0.19158 -0.30711,0.39002 -0.0482,0.0507 -0.10228,0.12034 -0.12005,0.15472 -0.0178,0.0344 -0.0532,0.0814 -0.0788,0.10454 -0.0256,0.0231 -0.0463,0.0529 -0.0462,0.0662 5.3e-4,0.0415 -0.29052,0.29763 -0.35132,0.30932 -0.13255,0.0255 -0.26313,0.0289 -0.36498,0.01 z m -0.44575,-1.69486 c 0.007,-0.0106 0.0411,-0.0251 0.0768,-0.0322 0.062,-0.0124 0.0656,-0.0197 0.0808,-0.16137 0.0213,-0.19949 0.008,-0.21647 -0.17857,-0.22466 -0.13868,-0.006 -0.15505,-0.002 -0.20473,0.0516 -0.0438,0.0473 -0.0519,0.0742 -0.0426,0.14314 0.009,0.0666 0.005,0.0824 -0.0194,0.0731 -0.0425,-0.0163 -0.0401,0.0614 0.004,0.11573 0.0254,0.0315 0.0377,0.0353 0.0463,0.0143 0.008,-0.0188 0.0205,-0.0213 0.0373,-0.007 0.014,0.0116 0.0553,0.0254 0.0918,0.0308 0.0365,0.005 0.0732,0.0112 0.0815,0.013 0.008,0.002 0.0206,-0.005 0.0272,-0.0159 z"
       style="opacity:0;fill:#ffcc00;fill-opacity:1;stroke:#ca990f;stroke-width:0.13069479;stroke-miterlimit:10;stroke-dasharray:none;stroke-opacity:1" />
    <path
       id="path1077"
       d="m 103.15069,151.22094 c -0.0596,-0.0114 -0.14911,-0.0441 -0.19886,-0.0729 -0.0498,-0.0287 -0.1317,-0.0643 -0.1821,-0.0791 -0.059,-0.0173 -0.10015,-0.0455 -0.11553,-0.0793 -0.0131,-0.0288 -0.034,-0.0524 -0.0465,-0.0524 -0.0124,0 -0.0226,-0.0119 -0.0226,-0.0264 0,-0.0145 -0.0234,-0.0518 -0.0521,-0.0829 -0.051,-0.0553 -0.12187,-0.2412 -0.13682,-0.35894 -0.004,-0.0327 -0.01,-0.15202 -0.0129,-0.26515 -0.003,-0.11314 -0.017,-0.23057 -0.0313,-0.26094 -0.0143,-0.0304 -0.0221,-0.066 -0.0174,-0.0791 0.0104,-0.0289 -0.1047,-0.0852 -0.12313,-0.0602 -0.007,0.01 -0.0528,0.0189 -0.10143,0.0203 -0.0486,10e-4 -0.11821,0.009 -0.15467,0.0177 -0.0365,0.008 -0.0784,0.0176 -0.0933,0.0207 -0.0148,0.003 -0.0339,0.0125 -0.0423,0.0209 -0.008,0.008 -0.0296,0.0154 -0.047,0.0154 -0.0174,0 -0.0647,0.0157 -0.10502,0.0348 -0.0681,0.0323 -0.0779,0.0319 -0.13591,-0.006 -0.0344,-0.0222 -0.0983,-0.0776 -0.14198,-0.1232 -0.0437,-0.0456 -0.0958,-0.0829 -0.11573,-0.0829 -0.0199,0 -0.061,-0.0391 -0.0912,-0.0869 -0.0302,-0.0478 -0.09,-0.11493 -0.13285,-0.14915 -0.0429,-0.0342 -0.078,-0.0748 -0.078,-0.0901 0,-0.0153 -0.009,-0.0452 -0.0207,-0.0663 -0.045,-0.0833 -0.12884,-0.28467 -0.14247,-0.34218 -0.008,-0.0334 -0.0238,-0.0608 -0.0354,-0.0608 -0.0115,0 -0.0156,-0.0139 -0.009,-0.0309 0.007,-0.017 0.001,-0.0375 -0.0118,-0.0455 -0.013,-0.008 -0.0236,-0.0339 -0.0236,-0.0575 0,-0.0236 -0.0105,-0.0429 -0.0234,-0.0429 -0.0129,0 -0.0179,-0.009 -0.0113,-0.0196 0.007,-0.0108 -0.002,-0.0315 -0.0199,-0.0461 -0.0355,-0.0294 -0.0364,-0.0278 0.10017,-0.17558 0.0433,-0.0469 0.11292,-0.12727 0.15467,-0.17866 0.0418,-0.0514 0.089,-0.10718 0.1051,-0.12398 0.0161,-0.0168 0.0233,-0.0306 0.0162,-0.0306 -0.007,0 0.012,-0.0494 0.0426,-0.10975 0.0306,-0.0603 0.0556,-0.12949 0.0556,-0.15362 0,-0.0552 0.0452,-0.15645 0.0698,-0.15645 0.0102,0 0.0186,-0.013 0.0186,-0.029 0,-0.0159 0.0199,-0.0503 0.0442,-0.0764 0.0243,-0.0261 0.0443,-0.0553 0.0443,-0.0649 5.3e-4,-0.0498 0.15519,-0.11601 0.32024,-0.13692 0.19716,-0.025 0.3996,-0.0799 0.42073,-0.11404 0.008,-0.0123 0.0536,-0.0475 0.10207,-0.0781 0.0506,-0.0319 0.10148,-0.0874 0.11933,-0.13017 0.0171,-0.041 0.0412,-0.0807 0.0536,-0.0883 0.0123,-0.008 0.0224,-0.0332 0.0224,-0.0567 0,-0.0236 0.01,-0.0429 0.0221,-0.0429 0.0121,0 0.0221,-0.0145 0.0221,-0.0322 0,-0.0545 0.1134,-0.22347 0.17993,-0.26804 0.0346,-0.0232 0.0634,-0.0521 0.0639,-0.0643 0.001,-0.0279 0.15212,-0.13315 0.22246,-0.15512 0.0291,-0.009 0.0579,-0.0236 0.064,-0.0322 0.006,-0.009 0.0856,-0.0517 0.17676,-0.0957 0.1599,-0.0773 0.24632,-0.0924 0.47697,-0.0833 0.0638,0.002 0.28934,0.1568 0.31665,0.21663 0.0123,0.027 0.0475,0.0554 0.0782,0.0631 0.0667,0.0168 0.17255,0.1574 0.28963,0.38493 0.0798,0.15501 0.14348,0.24356 0.23605,0.32805 0.0213,0.0194 0.0387,0.046 0.0387,0.0592 0,0.0264 0.13612,0.16514 0.16203,0.16514 0.009,0 0.0383,0.0198 0.0652,0.0441 0.0269,0.0243 0.0777,0.069 0.11291,0.0994 0.0352,0.0304 0.0578,0.0553 0.0502,0.0553 -0.0154,0 0.086,0.19126 0.12896,0.24305 0.0151,0.0182 0.0458,0.0729 0.0682,0.12153 0.0477,0.10339 0.0509,0.10761 0.2024,0.26846 0.0638,0.0677 0.116,0.14191 0.116,0.16486 0,0.0229 0.009,0.0417 0.0192,0.0417 0.016,0 0.0483,0.15364 0.0488,0.232 8e-4,0.14243 -0.0125,0.27067 -0.0307,0.29393 -0.0124,0.0158 -0.0285,0.0655 -0.0358,0.11045 -0.0102,0.0629 -0.029,0.0893 -0.0815,0.11484 -0.0902,0.0438 -0.13561,0.0924 -0.17518,0.18707 -0.0179,0.043 -0.0459,0.0781 -0.062,0.0781 -0.0432,0 -0.21306,0.17899 -0.21306,0.22454 0,0.0215 -0.0211,0.0503 -0.0468,0.0641 -0.0737,0.0394 -0.30635,0.22067 -0.38758,0.30189 -0.0406,0.0406 -0.0738,0.0933 -0.0738,0.11703 0,0.0413 -0.11833,0.19158 -0.30711,0.39002 -0.0482,0.0507 -0.10228,0.12034 -0.12005,0.15472 -0.0178,0.0344 -0.0532,0.0814 -0.0788,0.10454 -0.0256,0.0231 -0.0463,0.0529 -0.0462,0.0662 5.3e-4,0.0415 -0.29052,0.29763 -0.35132,0.30932 -0.13255,0.0255 -0.26313,0.0289 -0.36498,0.01 z m -0.44575,-1.69486 c 0.007,-0.0106 0.0411,-0.0251 0.0768,-0.0322 0.062,-0.0124 0.0656,-0.0197 0.0808,-0.16137 0.0213,-0.19949 0.008,-0.21647 -0.17857,-0.22466 -0.13868,-0.006 -0.15505,-0.002 -0.20473,0.0516 -0.0438,0.0473 -0.0519,0.0742 -0.0426,0.14314 0.009,0.0666 0.005,0.0824 -0.0194,0.0731 -0.0425,-0.0163 -0.0401,0.0614 0.004,0.11573 0.0254,0.0315 0.0377,0.0353 0.0463,0.0143 0.008,-0.0188 0.0205,-0.0213 0.0373,-0.007 0.014,0.0116 0.0553,0.0254 0.0918,0.0308 0.0365,0.005 0.0732,0.0112 0.0815,0.013 0.008,0.002 0.0206,-0.005 0.0272,-0.0159 z"
       style="opacity:0;fill:#ffcc00;fill-opacity:1;stroke:#ca990f;stroke-width:0.13069479;stroke-miterlimit:10;stroke-dasharray:none;stroke-opacity:1" />
    <path
       id="path1079"
       d="m 103.15069,151.22094 c -0.0596,-0.0114 -0.14911,-0.0441 -0.19886,-0.0729 -0.0498,-0.0287 -0.1317,-0.0643 -0.1821,-0.0791 -0.059,-0.0173 -0.10015,-0.0455 -0.11553,-0.0793 -0.0131,-0.0288 -0.034,-0.0524 -0.0465,-0.0524 -0.0124,0 -0.0226,-0.0119 -0.0226,-0.0264 0,-0.0145 -0.0234,-0.0518 -0.0521,-0.0829 -0.051,-0.0553 -0.12187,-0.2412 -0.13682,-0.35894 -0.004,-0.0327 -0.01,-0.15202 -0.0129,-0.26515 -0.003,-0.11314 -0.017,-0.23057 -0.0313,-0.26094 -0.0143,-0.0304 -0.0221,-0.066 -0.0174,-0.0791 0.0104,-0.0289 -0.1047,-0.0852 -0.12313,-0.0602 -0.007,0.01 -0.0528,0.0189 -0.10143,0.0203 -0.0486,10e-4 -0.11821,0.009 -0.15467,0.0177 -0.0365,0.008 -0.0784,0.0176 -0.0933,0.0207 -0.0148,0.003 -0.0339,0.0125 -0.0423,0.0209 -0.008,0.008 -0.0296,0.0154 -0.047,0.0154 -0.0174,0 -0.0647,0.0157 -0.10502,0.0348 -0.0681,0.0323 -0.0779,0.0319 -0.13591,-0.006 -0.0344,-0.0222 -0.0983,-0.0776 -0.14198,-0.1232 -0.0437,-0.0456 -0.0958,-0.0829 -0.11573,-0.0829 -0.0199,0 -0.061,-0.0391 -0.0912,-0.0869 -0.0302,-0.0478 -0.09,-0.11493 -0.13285,-0.14915 -0.0429,-0.0342 -0.078,-0.0748 -0.078,-0.0901 0,-0.0153 -0.009,-0.0452 -0.0207,-0.0663 -0.045,-0.0833 -0.12884,-0.28467 -0.14247,-0.34218 -0.008,-0.0334 -0.0238,-0.0608 -0.0354,-0.0608 -0.0115,0 -0.0156,-0.0139 -0.009,-0.0309 0.007,-0.017 0.001,-0.0375 -0.0118,-0.0455 -0.013,-0.008 -0.0236,-0.0339 -0.0236,-0.0575 0,-0.0236 -0.0105,-0.0429 -0.0234,-0.0429 -0.0129,0 -0.0179,-0.009 -0.0113,-0.0196 0.007,-0.0108 -0.002,-0.0315 -0.0199,-0.0461 -0.0355,-0.0294 -0.0364,-0.0278 0.10017,-0.17558 0.0433,-0.0469 0.11292,-0.12727 0.15467,-0.17866 0.0418,-0.0514 0.089,-0.10718 0.1051,-0.12398 0.0161,-0.0168 0.0233,-0.0306 0.0162,-0.0306 -0.007,0 0.012,-0.0494 0.0426,-0.10975 0.0306,-0.0603 0.0556,-0.12949 0.0556,-0.15362 0,-0.0552 0.0452,-0.15645 0.0698,-0.15645 0.0102,0 0.0186,-0.013 0.0186,-0.029 0,-0.0159 0.0199,-0.0503 0.0442,-0.0764 0.0243,-0.0261 0.0443,-0.0553 0.0443,-0.0649 5.3e-4,-0.0498 0.15519,-0.11601 0.32024,-0.13692 0.19716,-0.025 0.3996,-0.0799 0.42073,-0.11404 0.008,-0.0123 0.0536,-0.0475 0.10207,-0.0781 0.0506,-0.0319 0.10148,-0.0874 0.11933,-0.13017 0.0171,-0.041 0.0412,-0.0807 0.0536,-0.0883 0.0123,-0.008 0.0224,-0.0332 0.0224,-0.0567 0,-0.0236 0.01,-0.0429 0.0221,-0.0429 0.0121,0 0.0221,-0.0145 0.0221,-0.0322 0,-0.0545 0.1134,-0.22347 0.17993,-0.26804 0.0346,-0.0232 0.0634,-0.0521 0.0639,-0.0643 0.001,-0.0279 0.15212,-0.13315 0.22246,-0.15512 0.0291,-0.009 0.0579,-0.0236 0.064,-0.0322 0.006,-0.009 0.0856,-0.0517 0.17676,-0.0957 0.1599,-0.0773 0.24632,-0.0924 0.47697,-0.0833 0.0638,0.002 0.28934,0.1568 0.31665,0.21663 0.0123,0.027 0.0475,0.0554 0.0782,0.0631 0.0667,0.0168 0.17255,0.1574 0.28963,0.38493 0.0798,0.15501 0.14348,0.24356 0.23605,0.32805 0.0213,0.0194 0.0387,0.046 0.0387,0.0592 0,0.0264 0.13612,0.16514 0.16203,0.16514 0.009,0 0.0383,0.0198 0.0652,0.0441 0.0269,0.0243 0.0777,0.069 0.11291,0.0994 0.0352,0.0304 0.0578,0.0553 0.0502,0.0553 -0.0154,0 0.086,0.19126 0.12896,0.24305 0.0151,0.0182 0.0458,0.0729 0.0682,0.12153 0.0477,0.10339 0.0509,0.10761 0.2024,0.26846 0.0638,0.0677 0.116,0.14191 0.116,0.16486 0,0.0229 0.009,0.0417 0.0192,0.0417 0.016,0 0.0483,0.15364 0.0488,0.232 8e-4,0.14243 -0.0125,0.27067 -0.0307,0.29393 -0.0124,0.0158 -0.0285,0.0655 -0.0358,0.11045 -0.0102,0.0629 -0.029,0.0893 -0.0815,0.11484 -0.0902,0.0438 -0.13561,0.0924 -0.17518,0.18707 -0.0179,0.043 -0.0459,0.0781 -0.062,0.0781 -0.0432,0 -0.21306,0.17899 -0.21306,0.22454 0,0.0215 -0.0211,0.0503 -0.0468,0.0641 -0.0737,0.0394 -0.30635,0.22067 -0.38758,0.30189 -0.0406,0.0406 -0.0738,0.0933 -0.0738,0.11703 0,0.0413 -0.11833,0.19158 -0.30711,0.39002 -0.0482,0.0507 -0.10228,0.12034 -0.12005,0.15472 -0.0178,0.0344 -0.0532,0.0814 -0.0788,0.10454 -0.0256,0.0231 -0.0463,0.0529 -0.0462,0.0662 5.3e-4,0.0415 -0.29052,0.29763 -0.35132,0.30932 -0.13255,0.0255 -0.26313,0.0289 -0.36498,0.01 z m -0.44575,-1.69486 c 0.007,-0.0106 0.0411,-0.0251 0.0768,-0.0322 0.062,-0.0124 0.0656,-0.0197 0.0808,-0.16137 0.0213,-0.19949 0.008,-0.21647 -0.17857,-0.22466 -0.13868,-0.006 -0.15505,-0.002 -0.20473,0.0516 -0.0438,0.0473 -0.0519,0.0742 -0.0426,0.14314 0.009,0.0666 0.005,0.0824 -0.0194,0.0731 -0.0425,-0.0163 -0.0401,0.0614 0.004,0.11573 0.0254,0.0315 0.0377,0.0353 0.0463,0.0143 0.008,-0.0188 0.0205,-0.0213 0.0373,-0.007 0.014,0.0116 0.0553,0.0254 0.0918,0.0308 0.0365,0.005 0.0732,0.0112 0.0815,0.013 0.008,0.002 0.0206,-0.005 0.0272,-0.0159 z"
       style="opacity:0;fill:#ffcc00;fill-opacity:1;stroke:#ca990f;stroke-width:0.13069479;stroke-miterlimit:10;stroke-dasharray:none;stroke-opacity:1" />
    <path
       id="path1081"
       d="m 103.15069,151.22094 c -0.0596,-0.0114 -0.14911,-0.0441 -0.19886,-0.0729 -0.0498,-0.0287 -0.1317,-0.0643 -0.1821,-0.0791 -0.059,-0.0173 -0.10015,-0.0455 -0.11553,-0.0793 -0.0131,-0.0288 -0.034,-0.0524 -0.0465,-0.0524 -0.0124,0 -0.0226,-0.0119 -0.0226,-0.0264 0,-0.0145 -0.0234,-0.0518 -0.0521,-0.0829 -0.051,-0.0553 -0.12187,-0.2412 -0.13682,-0.35894 -0.004,-0.0327 -0.01,-0.15202 -0.0129,-0.26515 -0.003,-0.11314 -0.017,-0.23057 -0.0313,-0.26094 -0.0143,-0.0304 -0.0221,-0.066 -0.0174,-0.0791 0.0104,-0.0289 -0.1047,-0.0852 -0.12313,-0.0602 -0.007,0.01 -0.0528,0.0189 -0.10143,0.0203 -0.0486,10e-4 -0.11821,0.009 -0.15467,0.0177 -0.0365,0.008 -0.0784,0.0176 -0.0933,0.0207 -0.0148,0.003 -0.0339,0.0125 -0.0423,0.0209 -0.008,0.008 -0.0296,0.0154 -0.047,0.0154 -0.0174,0 -0.0647,0.0157 -0.10502,0.0348 -0.0681,0.0323 -0.0779,0.0319 -0.13591,-0.006 -0.0344,-0.0222 -0.0983,-0.0776 -0.14198,-0.1232 -0.0437,-0.0456 -0.0958,-0.0829 -0.11573,-0.0829 -0.0199,0 -0.061,-0.0391 -0.0912,-0.0869 -0.0302,-0.0478 -0.09,-0.11493 -0.13285,-0.14915 -0.0429,-0.0342 -0.078,-0.0748 -0.078,-0.0901 0,-0.0153 -0.009,-0.0452 -0.0207,-0.0663 -0.045,-0.0833 -0.12884,-0.28467 -0.14247,-0.34218 -0.008,-0.0334 -0.0238,-0.0608 -0.0354,-0.0608 -0.0115,0 -0.0156,-0.0139 -0.009,-0.0309 0.007,-0.017 0.001,-0.0375 -0.0118,-0.0455 -0.013,-0.008 -0.0236,-0.0339 -0.0236,-0.0575 0,-0.0236 -0.0105,-0.0429 -0.0234,-0.0429 -0.0129,0 -0.0179,-0.009 -0.0113,-0.0196 0.007,-0.0108 -0.002,-0.0315 -0.0199,-0.0461 -0.0355,-0.0294 -0.0364,-0.0278 0.10017,-0.17558 0.0433,-0.0469 0.11292,-0.12727 0.15467,-0.17866 0.0418,-0.0514 0.089,-0.10718 0.1051,-0.12398 0.0161,-0.0168 0.0233,-0.0306 0.0162,-0.0306 -0.007,0 0.012,-0.0494 0.0426,-0.10975 0.0306,-0.0603 0.0556,-0.12949 0.0556,-0.15362 0,-0.0552 0.0452,-0.15645 0.0698,-0.15645 0.0102,0 0.0186,-0.013 0.0186,-0.029 0,-0.0159 0.0199,-0.0503 0.0442,-0.0764 0.0243,-0.0261 0.0443,-0.0553 0.0443,-0.0649 5.3e-4,-0.0498 0.15519,-0.11601 0.32024,-0.13692 0.19716,-0.025 0.3996,-0.0799 0.42073,-0.11404 0.008,-0.0123 0.0536,-0.0475 0.10207,-0.0781 0.0506,-0.0319 0.10148,-0.0874 0.11933,-0.13017 0.0171,-0.041 0.0412,-0.0807 0.0536,-0.0883 0.0123,-0.008 0.0224,-0.0332 0.0224,-0.0567 0,-0.0236 0.01,-0.0429 0.0221,-0.0429 0.0121,0 0.0221,-0.0145 0.0221,-0.0322 0,-0.0545 0.1134,-0.22347 0.17993,-0.26804 0.0346,-0.0232 0.0634,-0.0521 0.0639,-0.0643 0.001,-0.0279 0.15212,-0.13315 0.22246,-0.15512 0.0291,-0.009 0.0579,-0.0236 0.064,-0.0322 0.006,-0.009 0.0856,-0.0517 0.17676,-0.0957 0.1599,-0.0773 0.24632,-0.0924 0.47697,-0.0833 0.0638,0.002 0.28934,0.1568 0.31665,0.21663 0.0123,0.027 0.0475,0.0554 0.0782,0.0631 0.0667,0.0168 0.17255,0.1574 0.28963,0.38493 0.0798,0.15501 0.14348,0.24356 0.23605,0.32805 0.0213,0.0194 0.0387,0.046 0.0387,0.0592 0,0.0264 0.13612,0.16514 0.16203,0.16514 0.009,0 0.0383,0.0198 0.0652,0.0441 0.0269,0.0243 0.0777,0.069 0.11291,0.0994 0.0352,0.0304 0.0578,0.0553 0.0502,0.0553 -0.0154,0 0.086,0.19126 0.12896,0.24305 0.0151,0.0182 0.0458,0.0729 0.0682,0.12153 0.0477,0.10339 0.0509,0.10761 0.2024,0.26846 0.0638,0.0677 0.116,0.14191 0.116,0.16486 0,0.0229 0.009,0.0417 0.0192,0.0417 0.016,0 0.0483,0.15364 0.0488,0.232 8e-4,0.14243 -0.0125,0.27067 -0.0307,0.29393 -0.0124,0.0158 -0.0285,0.0655 -0.0358,0.11045 -0.0102,0.0629 -0.029,0.0893 -0.0815,0.11484 -0.0902,0.0438 -0.13561,0.0924 -0.17518,0.18707 -0.0179,0.043 -0.0459,0.0781 -0.062,0.0781 -0.0432,0 -0.21306,0.17899 -0.21306,0.22454 0,0.0215 -0.0211,0.0503 -0.0468,0.0641 -0.0737,0.0394 -0.30635,0.22067 -0.38758,0.30189 -0.0406,0.0406 -0.0738,0.0933 -0.0738,0.11703 0,0.0413 -0.11833,0.19158 -0.30711,0.39002 -0.0482,0.0507 -0.10228,0.12034 -0.12005,0.15472 -0.0178,0.0344 -0.0532,0.0814 -0.0788,0.10454 -0.0256,0.0231 -0.0463,0.0529 -0.0462,0.0662 5.3e-4,0.0415 -0.29052,0.29763 -0.35132,0.30932 -0.13255,0.0255 -0.26313,0.0289 -0.36498,0.01 z m -0.44575,-1.69486 c 0.007,-0.0106 0.0411,-0.0251 0.0768,-0.0322 0.062,-0.0124 0.0656,-0.0197 0.0808,-0.16137 0.0213,-0.19949 0.008,-0.21647 -0.17857,-0.22466 -0.13868,-0.006 -0.15505,-0.002 -0.20473,0.0516 -0.0438,0.0473 -0.0519,0.0742 -0.0426,0.14314 0.009,0.0666 0.005,0.0824 -0.0194,0.0731 -0.0425,-0.0163 -0.0401,0.0614 0.004,0.11573 0.0254,0.0315 0.0377,0.0353 0.0463,0.0143 0.008,-0.0188 0.0205,-0.0213 0.0373,-0.007 0.014,0.0116 0.0553,0.0254 0.0918,0.0308 0.0365,0.005 0.0732,0.0112 0.0815,0.013 0.008,0.002 0.0206,-0.005 0.0272,-0.0159 z"
       style="opacity:0;fill:#ffcc00;fill-opacity:1;stroke:#ca990f;stroke-width:0.13069479;stroke-miterlimit:10;stroke-dasharray:none;stroke-opacity:1" />
    <path
       id="path1083"
       d="m 103.15069,151.22094 c -0.0596,-0.0114 -0.14911,-0.0441 -0.19886,-0.0729 -0.0498,-0.0287 -0.1317,-0.0643 -0.1821,-0.0791 -0.059,-0.0173 -0.10015,-0.0455 -0.11553,-0.0793 -0.0131,-0.0288 -0.034,-0.0524 -0.0465,-0.0524 -0.0124,0 -0.0226,-0.0119 -0.0226,-0.0264 0,-0.0145 -0.0234,-0.0518 -0.0521,-0.0829 -0.051,-0.0553 -0.12187,-0.2412 -0.13682,-0.35894 -0.004,-0.0327 -0.01,-0.15202 -0.0129,-0.26515 -0.003,-0.11314 -0.017,-0.23057 -0.0313,-0.26094 -0.0143,-0.0304 -0.0221,-0.066 -0.0174,-0.0791 0.0104,-0.0289 -0.1047,-0.0852 -0.12313,-0.0602 -0.007,0.01 -0.0528,0.0189 -0.10143,0.0203 -0.0486,10e-4 -0.11821,0.009 -0.15467,0.0177 -0.0365,0.008 -0.0784,0.0176 -0.0933,0.0207 -0.0148,0.003 -0.0339,0.0125 -0.0423,0.0209 -0.008,0.008 -0.0296,0.0154 -0.047,0.0154 -0.0174,0 -0.0647,0.0157 -0.10502,0.0348 -0.0681,0.0323 -0.0779,0.0319 -0.13591,-0.006 -0.0344,-0.0222 -0.0983,-0.0776 -0.14198,-0.1232 -0.0437,-0.0456 -0.0958,-0.0829 -0.11573,-0.0829 -0.0199,0 -0.061,-0.0391 -0.0912,-0.0869 -0.0302,-0.0478 -0.09,-0.11493 -0.13285,-0.14915 -0.0429,-0.0342 -0.078,-0.0748 -0.078,-0.0901 0,-0.0153 -0.009,-0.0452 -0.0207,-0.0663 -0.045,-0.0833 -0.12884,-0.28467 -0.14247,-0.34218 -0.008,-0.0334 -0.0238,-0.0608 -0.0354,-0.0608 -0.0115,0 -0.0156,-0.0139 -0.009,-0.0309 0.007,-0.017 0.001,-0.0375 -0.0118,-0.0455 -0.013,-0.008 -0.0236,-0.0339 -0.0236,-0.0575 0,-0.0236 -0.0105,-0.0429 -0.0234,-0.0429 -0.0129,0 -0.0179,-0.009 -0.0113,-0.0196 0.007,-0.0108 -0.002,-0.0315 -0.0199,-0.0461 -0.0355,-0.0294 -0.0364,-0.0278 0.10017,-0.17558 0.0433,-0.0469 0.11292,-0.12727 0.15467,-0.17866 0.0418,-0.0514 0.089,-0.10718 0.1051,-0.12398 0.0161,-0.0168 0.0233,-0.0306 0.0162,-0.0306 -0.007,0 0.012,-0.0494 0.0426,-0.10975 0.0306,-0.0603 0.0556,-0.12949 0.0556,-0.15362 0,-0.0552 0.0452,-0.15645 0.0698,-0.15645 0.0102,0 0.0186,-0.013 0.0186,-0.029 0,-0.0159 0.0199,-0.0503 0.0442,-0.0764 0.0243,-0.0261 0.0443,-0.0553 0.0443,-0.0649 5.3e-4,-0.0498 0.15519,-0.11601 0.32024,-0.13692 0.19716,-0.025 0.3996,-0.0799 0.42073,-0.11404 0.008,-0.0123 0.0536,-0.0475 0.10207,-0.0781 0.0506,-0.0319 0.10148,-0.0874 0.11933,-0.13017 0.0171,-0.041 0.0412,-0.0807 0.0536,-0.0883 0.0123,-0.008 0.0224,-0.0332 0.0224,-0.0567 0,-0.0236 0.01,-0.0429 0.0221,-0.0429 0.0121,0 0.0221,-0.0145 0.0221,-0.0322 0,-0.0545 0.1134,-0.22347 0.17993,-0.26804 0.0346,-0.0232 0.0634,-0.0521 0.0639,-0.0643 0.001,-0.0279 0.15212,-0.13315 0.22246,-0.15512 0.0291,-0.009 0.0579,-0.0236 0.064,-0.0322 0.006,-0.009 0.0856,-0.0517 0.17676,-0.0957 0.1599,-0.0773 0.24632,-0.0924 0.47697,-0.0833 0.0638,0.002 0.28934,0.1568 0.31665,0.21663 0.0123,0.027 0.0475,0.0554 0.0782,0.0631 0.0667,0.0168 0.17255,0.1574 0.28963,0.38493 0.0798,0.15501 0.14348,0.24356 0.23605,0.32805 0.0213,0.0194 0.0387,0.046 0.0387,0.0592 0,0.0264 0.13612,0.16514 0.16203,0.16514 0.009,0 0.0383,0.0198 0.0652,0.0441 0.0269,0.0243 0.0777,0.069 0.11291,0.0994 0.0352,0.0304 0.0578,0.0553 0.0502,0.0553 -0.0154,0 0.086,0.19126 0.12896,0.24305 0.0151,0.0182 0.0458,0.0729 0.0682,0.12153 0.0477,0.10339 0.0509,0.10761 0.2024,0.26846 0.0638,0.0677 0.116,0.14191 0.116,0.16486 0,0.0229 0.009,0.0417 0.0192,0.0417 0.016,0 0.0483,0.15364 0.0488,0.232 8e-4,0.14243 -0.0125,0.27067 -0.0307,0.29393 -0.0124,0.0158 -0.0285,0.0655 -0.0358,0.11045 -0.0102,0.0629 -0.029,0.0893 -0.0815,0.11484 -0.0902,0.0438 -0.13561,0.0924 -0.17518,0.18707 -0.0179,0.043 -0.0459,0.0781 -0.062,0.0781 -0.0432,0 -0.21306,0.17899 -0.21306,0.22454 0,0.0215 -0.0211,0.0503 -0.0468,0.0641 -0.0737,0.0394 -0.30635,0.22067 -0.38758,0.30189 -0.0406,0.0406 -0.0738,0.0933 -0.0738,0.11703 0,0.0413 -0.11833,0.19158 -0.30711,0.39002 -0.0482,0.0507 -0.10228,0.12034 -0.12005,0.15472 -0.0178,0.0344 -0.0532,0.0814 -0.0788,0.10454 -0.0256,0.0231 -0.0463,0.0529 -0.0462,0.0662 5.3e-4,0.0415 -0.29052,0.29763 -0.35132,0.30932 -0.13255,0.0255 -0.26313,0.0289 -0.36498,0.01 z m -0.44575,-1.69486 c 0.007,-0.0106 0.0411,-0.0251 0.0768,-0.0322 0.062,-0.0124 0.0656,-0.0197 0.0808,-0.16137 0.0213,-0.19949 0.008,-0.21647 -0.17857,-0.22466 -0.13868,-0.006 -0.15505,-0.002 -0.20473,0.0516 -0.0438,0.0473 -0.0519,0.0742 -0.0426,0.14314 0.009,0.0666 0.005,0.0824 -0.0194,0.0731 -0.0425,-0.0163 -0.0401,0.0614 0.004,0.11573 0.0254,0.0315 0.0377,0.0353 0.0463,0.0143 0.008,-0.0188 0.0205,-0.0213 0.0373,-0.007 0.014,0.0116 0.0553,0.0254 0.0918,0.0308 0.0365,0.005 0.0732,0.0112 0.0815,0.013 0.008,0.002 0.0206,-0.005 0.0272,-0.0159 z"
       style="opacity:0;fill:#ffcc00;fill-opacity:1;stroke:#ca990f;stroke-width:0.13069479;stroke-miterlimit:10;stroke-dasharray:none;stroke-opacity:1" />
    <path
       id="path1085"
       d="m 103.15069,151.22094 c -0.0596,-0.0114 -0.14911,-0.0441 -0.19886,-0.0729 -0.0498,-0.0287 -0.1317,-0.0643 -0.1821,-0.0791 -0.059,-0.0173 -0.10015,-0.0455 -0.11553,-0.0793 -0.0131,-0.0288 -0.034,-0.0524 -0.0465,-0.0524 -0.0124,0 -0.0226,-0.0119 -0.0226,-0.0264 0,-0.0145 -0.0234,-0.0518 -0.0521,-0.0829 -0.051,-0.0553 -0.12187,-0.2412 -0.13682,-0.35894 -0.004,-0.0327 -0.01,-0.15202 -0.0129,-0.26515 -0.003,-0.11314 -0.017,-0.23057 -0.0313,-0.26094 -0.0143,-0.0304 -0.0221,-0.066 -0.0174,-0.0791 0.0104,-0.0289 -0.1047,-0.0852 -0.12313,-0.0602 -0.007,0.01 -0.0528,0.0189 -0.10143,0.0203 -0.0486,10e-4 -0.11821,0.009 -0.15467,0.0177 -0.0365,0.008 -0.0784,0.0176 -0.0933,0.0207 -0.0148,0.003 -0.0339,0.0125 -0.0423,0.0209 -0.008,0.008 -0.0296,0.0154 -0.047,0.0154 -0.0174,0 -0.0647,0.0157 -0.10502,0.0348 -0.0681,0.0323 -0.0779,0.0319 -0.13591,-0.006 -0.0344,-0.0222 -0.0983,-0.0776 -0.14198,-0.1232 -0.0437,-0.0456 -0.0958,-0.0829 -0.11573,-0.0829 -0.0199,0 -0.061,-0.0391 -0.0912,-0.0869 -0.0302,-0.0478 -0.09,-0.11493 -0.13285,-0.14915 -0.0429,-0.0342 -0.078,-0.0748 -0.078,-0.0901 0,-0.0153 -0.009,-0.0452 -0.0207,-0.0663 -0.045,-0.0833 -0.12884,-0.28467 -0.14247,-0.34218 -0.008,-0.0334 -0.0238,-0.0608 -0.0354,-0.0608 -0.0115,0 -0.0156,-0.0139 -0.009,-0.0309 0.007,-0.017 0.001,-0.0375 -0.0118,-0.0455 -0.013,-0.008 -0.0236,-0.0339 -0.0236,-0.0575 0,-0.0236 -0.0105,-0.0429 -0.0234,-0.0429 -0.0129,0 -0.0179,-0.009 -0.0113,-0.0196 0.007,-0.0108 -0.002,-0.0315 -0.0199,-0.0461 -0.0355,-0.0294 -0.0364,-0.0278 0.10017,-0.17558 0.0433,-0.0469 0.11292,-0.12727 0.15467,-0.17866 0.0418,-0.0514 0.089,-0.10718 0.1051,-0.12398 0.0161,-0.0168 0.0233,-0.0306 0.0162,-0.0306 -0.007,0 0.012,-0.0494 0.0426,-0.10975 0.0306,-0.0603 0.0556,-0.12949 0.0556,-0.15362 0,-0.0552 0.0452,-0.15645 0.0698,-0.15645 0.0102,0 0.0186,-0.013 0.0186,-0.029 0,-0.0159 0.0199,-0.0503 0.0442,-0.0764 0.0243,-0.0261 0.0443,-0.0553 0.0443,-0.0649 5.3e-4,-0.0498 0.15519,-0.11601 0.32024,-0.13692 0.19716,-0.025 0.3996,-0.0799 0.42073,-0.11404 0.008,-0.0123 0.0536,-0.0475 0.10207,-0.0781 0.0506,-0.0319 0.10148,-0.0874 0.11933,-0.13017 0.0171,-0.041 0.0412,-0.0807 0.0536,-0.0883 0.0123,-0.008 0.0224,-0.0332 0.0224,-0.0567 0,-0.0236 0.01,-0.0429 0.0221,-0.0429 0.0121,0 0.0221,-0.0145 0.0221,-0.0322 0,-0.0545 0.1134,-0.22347 0.17993,-0.26804 0.0346,-0.0232 0.0634,-0.0521 0.0639,-0.0643 0.001,-0.0279 0.15212,-0.13315 0.22246,-0.15512 0.0291,-0.009 0.0579,-0.0236 0.064,-0.0322 0.006,-0.009 0.0856,-0.0517 0.17676,-0.0957 0.1599,-0.0773 0.24632,-0.0924 0.47697,-0.0833 0.0638,0.002 0.28934,0.1568 0.31665,0.21663 0.0123,0.027 0.0475,0.0554 0.0782,0.0631 0.0667,0.0168 0.17255,0.1574 0.28963,0.38493 0.0798,0.15501 0.14348,0.24356 0.23605,0.32805 0.0213,0.0194 0.0387,0.046 0.0387,0.0592 0,0.0264 0.13612,0.16514 0.16203,0.16514 0.009,0 0.0383,0.0198 0.0652,0.0441 0.0269,0.0243 0.0777,0.069 0.11291,0.0994 0.0352,0.0304 0.0578,0.0553 0.0502,0.0553 -0.0154,0 0.086,0.19126 0.12896,0.24305 0.0151,0.0182 0.0458,0.0729 0.0682,0.12153 0.0477,0.10339 0.0509,0.10761 0.2024,0.26846 0.0638,0.0677 0.116,0.14191 0.116,0.16486 0,0.0229 0.009,0.0417 0.0192,0.0417 0.016,0 0.0483,0.15364 0.0488,0.232 8e-4,0.14243 -0.0125,0.27067 -0.0307,0.29393 -0.0124,0.0158 -0.0285,0.0655 -0.0358,0.11045 -0.0102,0.0629 -0.029,0.0893 -0.0815,0.11484 -0.0902,0.0438 -0.13561,0.0924 -0.17518,0.18707 -0.0179,0.043 -0.0459,0.0781 -0.062,0.0781 -0.0432,0 -0.21306,0.17899 -0.21306,0.22454 0,0.0215 -0.0211,0.0503 -0.0468,0.0641 -0.0737,0.0394 -0.30635,0.22067 -0.38758,0.30189 -0.0406,0.0406 -0.0738,0.0933 -0.0738,0.11703 0,0.0413 -0.11833,0.19158 -0.30711,0.39002 -0.0482,0.0507 -0.10228,0.12034 -0.12005,0.15472 -0.0178,0.0344 -0.0532,0.0814 -0.0788,0.10454 -0.0256,0.0231 -0.0463,0.0529 -0.0462,0.0662 5.3e-4,0.0415 -0.29052,0.29763 -0.35132,0.30932 -0.13255,0.0255 -0.26313,0.0289 -0.36498,0.01 z m -0.44575,-1.69486 c 0.007,-0.0106 0.0411,-0.0251 0.0768,-0.0322 0.062,-0.0124 0.0656,-0.0197 0.0808,-0.16137 0.0213,-0.19949 0.008,-0.21647 -0.17857,-0.22466 -0.13868,-0.006 -0.15505,-0.002 -0.20473,0.0516 -0.0438,0.0473 -0.0519,0.0742 -0.0426,0.14314 0.009,0.0666 0.005,0.0824 -0.0194,0.0731 -0.0425,-0.0163 -0.0401,0.0614 0.004,0.11573 0.0254,0.0315 0.0377,0.0353 0.0463,0.0143 0.008,-0.0188 0.0205,-0.0213 0.0373,-0.007 0.014,0.0116 0.0553,0.0254 0.0918,0.0308 0.0365,0.005 0.0732,0.0112 0.0815,0.013 0.008,0.002 0.0206,-0.005 0.0272,-0.0159 z"
       style="opacity:0;fill:#ffcc00;fill-opacity:1;stroke:#ca990f;stroke-width:0.13069479;stroke-miterlimit:10;stroke-dasharray:none;stroke-opacity:1" />
    <path
       id="path1087"
       d="m 103.15069,151.22094 c -0.0596,-0.0114 -0.14911,-0.0441 -0.19886,-0.0729 -0.0498,-0.0287 -0.1317,-0.0643 -0.1821,-0.0791 -0.059,-0.0173 -0.10015,-0.0455 -0.11553,-0.0793 -0.0131,-0.0288 -0.034,-0.0524 -0.0465,-0.0524 -0.0124,0 -0.0226,-0.0119 -0.0226,-0.0264 0,-0.0145 -0.0234,-0.0518 -0.0521,-0.0829 -0.051,-0.0553 -0.12187,-0.2412 -0.13682,-0.35894 -0.004,-0.0327 -0.01,-0.15202 -0.0129,-0.26515 -0.003,-0.11314 -0.017,-0.23057 -0.0313,-0.26094 -0.0143,-0.0304 -0.0221,-0.066 -0.0174,-0.0791 0.0104,-0.0289 -0.1047,-0.0852 -0.12313,-0.0602 -0.007,0.01 -0.0528,0.0189 -0.10143,0.0203 -0.0486,10e-4 -0.11821,0.009 -0.15467,0.0177 -0.0365,0.008 -0.0784,0.0176 -0.0933,0.0207 -0.0148,0.003 -0.0339,0.0125 -0.0423,0.0209 -0.008,0.008 -0.0296,0.0154 -0.047,0.0154 -0.0174,0 -0.0647,0.0157 -0.10502,0.0348 -0.0681,0.0323 -0.0779,0.0319 -0.13591,-0.006 -0.0344,-0.0222 -0.0983,-0.0776 -0.14198,-0.1232 -0.0437,-0.0456 -0.0958,-0.0829 -0.11573,-0.0829 -0.0199,0 -0.061,-0.0391 -0.0912,-0.0869 -0.0302,-0.0478 -0.09,-0.11493 -0.13285,-0.14915 -0.0429,-0.0342 -0.078,-0.0748 -0.078,-0.0901 0,-0.0153 -0.009,-0.0452 -0.0207,-0.0663 -0.045,-0.0833 -0.12884,-0.28467 -0.14247,-0.34218 -0.008,-0.0334 -0.0238,-0.0608 -0.0354,-0.0608 -0.0115,0 -0.0156,-0.0139 -0.009,-0.0309 0.007,-0.017 0.001,-0.0375 -0.0118,-0.0455 -0.013,-0.008 -0.0236,-0.0339 -0.0236,-0.0575 0,-0.0236 -0.0105,-0.0429 -0.0234,-0.0429 -0.0129,0 -0.0179,-0.009 -0.0113,-0.0196 0.007,-0.0108 -0.002,-0.0315 -0.0199,-0.0461 -0.0355,-0.0294 -0.0364,-0.0278 0.10017,-0.17558 0.0433,-0.0469 0.11292,-0.12727 0.15467,-0.17866 0.0418,-0.0514 0.089,-0.10718 0.1051,-0.12398 0.0161,-0.0168 0.0233,-0.0306 0.0162,-0.0306 -0.007,0 0.012,-0.0494 0.0426,-0.10975 0.0306,-0.0603 0.0556,-0.12949 0.0556,-0.15362 0,-0.0552 0.0452,-0.15645 0.0698,-0.15645 0.0102,0 0.0186,-0.013 0.0186,-0.029 0,-0.0159 0.0199,-0.0503 0.0442,-0.0764 0.0243,-0.0261 0.0443,-0.0553 0.0443,-0.0649 5.3e-4,-0.0498 0.15519,-0.11601 0.32024,-0.13692 0.19716,-0.025 0.3996,-0.0799 0.42073,-0.11404 0.008,-0.0123 0.0536,-0.0475 0.10207,-0.0781 0.0506,-0.0319 0.10148,-0.0874 0.11933,-0.13017 0.0171,-0.041 0.0412,-0.0807 0.0536,-0.0883 0.0123,-0.008 0.0224,-0.0332 0.0224,-0.0567 0,-0.0236 0.01,-0.0429 0.0221,-0.0429 0.0121,0 0.0221,-0.0145 0.0221,-0.0322 0,-0.0545 0.1134,-0.22347 0.17993,-0.26804 0.0346,-0.0232 0.0634,-0.0521 0.0639,-0.0643 0.001,-0.0279 0.15212,-0.13315 0.22246,-0.15512 0.0291,-0.009 0.0579,-0.0236 0.064,-0.0322 0.006,-0.009 0.0856,-0.0517 0.17676,-0.0957 0.1599,-0.0773 0.24632,-0.0924 0.47697,-0.0833 0.0638,0.002 0.28934,0.1568 0.31665,0.21663 0.0123,0.027 0.0475,0.0554 0.0782,0.0631 0.0667,0.0168 0.17255,0.1574 0.28963,0.38493 0.0798,0.15501 0.14348,0.24356 0.23605,0.32805 0.0213,0.0194 0.0387,0.046 0.0387,0.0592 0,0.0264 0.13612,0.16514 0.16203,0.16514 0.009,0 0.0383,0.0198 0.0652,0.0441 0.0269,0.0243 0.0777,0.069 0.11291,0.0994 0.0352,0.0304 0.0578,0.0553 0.0502,0.0553 -0.0154,0 0.086,0.19126 0.12896,0.24305 0.0151,0.0182 0.0458,0.0729 0.0682,0.12153 0.0477,0.10339 0.0509,0.10761 0.2024,0.26846 0.0638,0.0677 0.116,0.14191 0.116,0.16486 0,0.0229 0.009,0.0417 0.0192,0.0417 0.016,0 0.0483,0.15364 0.0488,0.232 8e-4,0.14243 -0.0125,0.27067 -0.0307,0.29393 -0.0124,0.0158 -0.0285,0.0655 -0.0358,0.11045 -0.0102,0.0629 -0.029,0.0893 -0.0815,0.11484 -0.0902,0.0438 -0.13561,0.0924 -0.17518,0.18707 -0.0179,0.043 -0.0459,0.0781 -0.062,0.0781 -0.0432,0 -0.21306,0.17899 -0.21306,0.22454 0,0.0215 -0.0211,0.0503 -0.0468,0.0641 -0.0737,0.0394 -0.30635,0.22067 -0.38758,0.30189 -0.0406,0.0406 -0.0738,0.0933 -0.0738,0.11703 0,0.0413 -0.11833,0.19158 -0.30711,0.39002 -0.0482,0.0507 -0.10228,0.12034 -0.12005,0.15472 -0.0178,0.0344 -0.0532,0.0814 -0.0788,0.10454 -0.0256,0.0231 -0.0463,0.0529 -0.0462,0.0662 5.3e-4,0.0415 -0.29052,0.29763 -0.35132,0.30932 -0.13255,0.0255 -0.26313,0.0289 -0.36498,0.01 z m -0.44575,-1.69486 c 0.007,-0.0106 0.0411,-0.0251 0.0768,-0.0322 0.062,-0.0124 0.0656,-0.0197 0.0808,-0.16137 0.0213,-0.19949 0.008,-0.21647 -0.17857,-0.22466 -0.13868,-0.006 -0.15505,-0.002 -0.20473,0.0516 -0.0438,0.0473 -0.0519,0.0742 -0.0426,0.14314 0.009,0.0666 0.005,0.0824 -0.0194,0.0731 -0.0425,-0.0163 -0.0401,0.0614 0.004,0.11573 0.0254,0.0315 0.0377,0.0353 0.0463,0.0143 0.008,-0.0188 0.0205,-0.0213 0.0373,-0.007 0.014,0.0116 0.0553,0.0254 0.0918,0.0308 0.0365,0.005 0.0732,0.0112 0.0815,0.013 0.008,0.002 0.0206,-0.005 0.0272,-0.0159 z"
       style="opacity:0;fill:#ffcc00;fill-opacity:1;stroke:#ca990f;stroke-width:0.13069479;stroke-miterlimit:10;stroke-dasharray:none;stroke-opacity:1" />
    <path
       id="path1089"
       d="m 103.15069,151.22094 c -0.0596,-0.0114 -0.14911,-0.0441 -0.19886,-0.0729 -0.0498,-0.0287 -0.1317,-0.0643 -0.1821,-0.0791 -0.059,-0.0173 -0.10015,-0.0455 -0.11553,-0.0793 -0.0131,-0.0288 -0.034,-0.0524 -0.0465,-0.0524 -0.0124,0 -0.0226,-0.0119 -0.0226,-0.0264 0,-0.0145 -0.0234,-0.0518 -0.0521,-0.0829 -0.051,-0.0553 -0.12187,-0.2412 -0.13682,-0.35894 -0.004,-0.0327 -0.01,-0.15202 -0.0129,-0.26515 -0.003,-0.11314 -0.017,-0.23057 -0.0313,-0.26094 -0.0143,-0.0304 -0.0221,-0.066 -0.0174,-0.0791 0.0104,-0.0289 -0.1047,-0.0852 -0.12313,-0.0602 -0.007,0.01 -0.0528,0.0189 -0.10143,0.0203 -0.0486,10e-4 -0.11821,0.009 -0.15467,0.0177 -0.0365,0.008 -0.0784,0.0176 -0.0933,0.0207 -0.0148,0.003 -0.0339,0.0125 -0.0423,0.0209 -0.008,0.008 -0.0296,0.0154 -0.047,0.0154 -0.0174,0 -0.0647,0.0157 -0.10502,0.0348 -0.0681,0.0323 -0.0779,0.0319 -0.13591,-0.006 -0.0344,-0.0222 -0.0983,-0.0776 -0.14198,-0.1232 -0.0437,-0.0456 -0.0958,-0.0829 -0.11573,-0.0829 -0.0199,0 -0.061,-0.0391 -0.0912,-0.0869 -0.0302,-0.0478 -0.09,-0.11493 -0.13285,-0.14915 -0.0429,-0.0342 -0.078,-0.0748 -0.078,-0.0901 0,-0.0153 -0.009,-0.0452 -0.0207,-0.0663 -0.045,-0.0833 -0.12884,-0.28467 -0.14247,-0.34218 -0.008,-0.0334 -0.0238,-0.0608 -0.0354,-0.0608 -0.0115,0 -0.0156,-0.0139 -0.009,-0.0309 0.007,-0.017 0.001,-0.0375 -0.0118,-0.0455 -0.013,-0.008 -0.0236,-0.0339 -0.0236,-0.0575 0,-0.0236 -0.0105,-0.0429 -0.0234,-0.0429 -0.0129,0 -0.0179,-0.009 -0.0113,-0.0196 0.007,-0.0108 -0.002,-0.0315 -0.0199,-0.0461 -0.0355,-0.0294 -0.0364,-0.0278 0.10017,-0.17558 0.0433,-0.0469 0.11292,-0.12727 0.15467,-0.17866 0.0418,-0.0514 0.089,-0.10718 0.1051,-0.12398 0.0161,-0.0168 0.0233,-0.0306 0.0162,-0.0306 -0.007,0 0.012,-0.0494 0.0426,-0.10975 0.0306,-0.0603 0.0556,-0.12949 0.0556,-0.15362 0,-0.0552 0.0452,-0.15645 0.0698,-0.15645 0.0102,0 0.0186,-0.013 0.0186,-0.029 0,-0.0159 0.0199,-0.0503 0.0442,-0.0764 0.0243,-0.0261 0.0443,-0.0553 0.0443,-0.0649 5.3e-4,-0.0498 0.15519,-0.11601 0.32024,-0.13692 0.19716,-0.025 0.3996,-0.0799 0.42073,-0.11404 0.008,-0.0123 0.0536,-0.0475 0.10207,-0.0781 0.0506,-0.0319 0.10148,-0.0874 0.11933,-0.13017 0.0171,-0.041 0.0412,-0.0807 0.0536,-0.0883 0.0123,-0.008 0.0224,-0.0332 0.0224,-0.0567 0,-0.0236 0.01,-0.0429 0.0221,-0.0429 0.0121,0 0.0221,-0.0145 0.0221,-0.0322 0,-0.0545 0.1134,-0.22347 0.17993,-0.26804 0.0346,-0.0232 0.0634,-0.0521 0.0639,-0.0643 0.001,-0.0279 0.15212,-0.13315 0.22246,-0.15512 0.0291,-0.009 0.0579,-0.0236 0.064,-0.0322 0.006,-0.009 0.0856,-0.0517 0.17676,-0.0957 0.1599,-0.0773 0.24632,-0.0924 0.47697,-0.0833 0.0638,0.002 0.28934,0.1568 0.31665,0.21663 0.0123,0.027 0.0475,0.0554 0.0782,0.0631 0.0667,0.0168 0.17255,0.1574 0.28963,0.38493 0.0798,0.15501 0.14348,0.24356 0.23605,0.32805 0.0213,0.0194 0.0387,0.046 0.0387,0.0592 0,0.0264 0.13612,0.16514 0.16203,0.16514 0.009,0 0.0383,0.0198 0.0652,0.0441 0.0269,0.0243 0.0777,0.069 0.11291,0.0994 0.0352,0.0304 0.0578,0.0553 0.0502,0.0553 -0.0154,0 0.086,0.19126 0.12896,0.24305 0.0151,0.0182 0.0458,0.0729 0.0682,0.12153 0.0477,0.10339 0.0509,0.10761 0.2024,0.26846 0.0638,0.0677 0.116,0.14191 0.116,0.16486 0,0.0229 0.009,0.0417 0.0192,0.0417 0.016,0 0.0483,0.15364 0.0488,0.232 8e-4,0.14243 -0.0125,0.27067 -0.0307,0.29393 -0.0124,0.0158 -0.0285,0.0655 -0.0358,0.11045 -0.0102,0.0629 -0.029,0.0893 -0.0815,0.11484 -0.0902,0.0438 -0.13561,0.0924 -0.17518,0.18707 -0.0179,0.043 -0.0459,0.0781 -0.062,0.0781 -0.0432,0 -0.21306,0.17899 -0.21306,0.22454 0,0.0215 -0.0211,0.0503 -0.0468,0.0641 -0.0737,0.0394 -0.30635,0.22067 -0.38758,0.30189 -0.0406,0.0406 -0.0738,0.0933 -0.0738,0.11703 0,0.0413 -0.11833,0.19158 -0.30711,0.39002 -0.0482,0.0507 -0.10228,0.12034 -0.12005,0.15472 -0.0178,0.0344 -0.0532,0.0814 -0.0788,0.10454 -0.0256,0.0231 -0.0463,0.0529 -0.0462,0.0662 5.3e-4,0.0415 -0.29052,0.29763 -0.35132,0.30932 -0.13255,0.0255 -0.26313,0.0289 -0.36498,0.01 z m -0.44575,-1.69486 c 0.007,-0.0106 0.0411,-0.0251 0.0768,-0.0322 0.062,-0.0124 0.0656,-0.0197 0.0808,-0.16137 0.0213,-0.19949 0.008,-0.21647 -0.17857,-0.22466 -0.13868,-0.006 -0.15505,-0.002 -0.20473,0.0516 -0.0438,0.0473 -0.0519,0.0742 -0.0426,0.14314 0.009,0.0666 0.005,0.0824 -0.0194,0.0731 -0.0425,-0.0163 -0.0401,0.0614 0.004,0.11573 0.0254,0.0315 0.0377,0.0353 0.0463,0.0143 0.008,-0.0188 0.0205,-0.0213 0.0373,-0.007 0.014,0.0116 0.0553,0.0254 0.0918,0.0308 0.0365,0.005 0.0732,0.0112 0.0815,0.013 0.008,0.002 0.0206,-0.005 0.0272,-0.0159 z"
       style="opacity:0;fill:#ffcc00;fill-opacity:1;stroke:#ca990f;stroke-width:0.13069479;stroke-miterlimit:10;stroke-dasharray:none;stroke-opacity:1" />
    <path
       id="path1091"
       d="m 103.15069,151.22094 c -0.0596,-0.0114 -0.14911,-0.0441 -0.19886,-0.0729 -0.0498,-0.0287 -0.1317,-0.0643 -0.1821,-0.0791 -0.059,-0.0173 -0.10015,-0.0455 -0.11553,-0.0793 -0.0131,-0.0288 -0.034,-0.0524 -0.0465,-0.0524 -0.0124,0 -0.0226,-0.0119 -0.0226,-0.0264 0,-0.0145 -0.0234,-0.0518 -0.0521,-0.0829 -0.051,-0.0553 -0.12187,-0.2412 -0.13682,-0.35894 -0.004,-0.0327 -0.01,-0.15202 -0.0129,-0.26515 -0.003,-0.11314 -0.017,-0.23057 -0.0313,-0.26094 -0.0143,-0.0304 -0.0221,-0.066 -0.0174,-0.0791 0.0104,-0.0289 -0.1047,-0.0852 -0.12313,-0.0602 -0.007,0.01 -0.0528,0.0189 -0.10143,0.0203 -0.0486,10e-4 -0.11821,0.009 -0.15467,0.0177 -0.0365,0.008 -0.0784,0.0176 -0.0933,0.0207 -0.0148,0.003 -0.0339,0.0125 -0.0423,0.0209 -0.008,0.008 -0.0296,0.0154 -0.047,0.0154 -0.0174,0 -0.0647,0.0157 -0.10502,0.0348 -0.0681,0.0323 -0.0779,0.0319 -0.13591,-0.006 -0.0344,-0.0222 -0.0983,-0.0776 -0.14198,-0.1232 -0.0437,-0.0456 -0.0958,-0.0829 -0.11573,-0.0829 -0.0199,0 -0.061,-0.0391 -0.0912,-0.0869 -0.0302,-0.0478 -0.09,-0.11493 -0.13285,-0.14915 -0.0429,-0.0342 -0.078,-0.0748 -0.078,-0.0901 0,-0.0153 -0.009,-0.0452 -0.0207,-0.0663 -0.045,-0.0833 -0.12884,-0.28467 -0.14247,-0.34218 -0.008,-0.0334 -0.0238,-0.0608 -0.0354,-0.0608 -0.0115,0 -0.0156,-0.0139 -0.009,-0.0309 0.007,-0.017 0.001,-0.0375 -0.0118,-0.0455 -0.013,-0.008 -0.0236,-0.0339 -0.0236,-0.0575 0,-0.0236 -0.0105,-0.0429 -0.0234,-0.0429 -0.0129,0 -0.0179,-0.009 -0.0113,-0.0196 0.007,-0.0108 -0.002,-0.0315 -0.0199,-0.0461 -0.0355,-0.0294 -0.0364,-0.0278 0.10017,-0.17558 0.0433,-0.0469 0.11292,-0.12727 0.15467,-0.17866 0.0418,-0.0514 0.089,-0.10718 0.1051,-0.12398 0.0161,-0.0168 0.0233,-0.0306 0.0162,-0.0306 -0.007,0 0.012,-0.0494 0.0426,-0.10975 0.0306,-0.0603 0.0556,-0.12949 0.0556,-0.15362 0,-0.0552 0.0452,-0.15645 0.0698,-0.15645 0.0102,0 0.0186,-0.013 0.0186,-0.029 0,-0.0159 0.0199,-0.0503 0.0442,-0.0764 0.0243,-0.0261 0.0443,-0.0553 0.0443,-0.0649 5.3e-4,-0.0498 0.15519,-0.11601 0.32024,-0.13692 0.19716,-0.025 0.3996,-0.0799 0.42073,-0.11404 0.008,-0.0123 0.0536,-0.0475 0.10207,-0.0781 0.0506,-0.0319 0.10148,-0.0874 0.11933,-0.13017 0.0171,-0.041 0.0412,-0.0807 0.0536,-0.0883 0.0123,-0.008 0.0224,-0.0332 0.0224,-0.0567 0,-0.0236 0.01,-0.0429 0.0221,-0.0429 0.0121,0 0.0221,-0.0145 0.0221,-0.0322 0,-0.0545 0.1134,-0.22347 0.17993,-0.26804 0.0346,-0.0232 0.0634,-0.0521 0.0639,-0.0643 0.001,-0.0279 0.15212,-0.13315 0.22246,-0.15512 0.0291,-0.009 0.0579,-0.0236 0.064,-0.0322 0.006,-0.009 0.0856,-0.0517 0.17676,-0.0957 0.1599,-0.0773 0.24632,-0.0924 0.47697,-0.0833 0.0638,0.002 0.28934,0.1568 0.31665,0.21663 0.0123,0.027 0.0475,0.0554 0.0782,0.0631 0.0667,0.0168 0.17255,0.1574 0.28963,0.38493 0.0798,0.15501 0.14348,0.24356 0.23605,0.32805 0.0213,0.0194 0.0387,0.046 0.0387,0.0592 0,0.0264 0.13612,0.16514 0.16203,0.16514 0.009,0 0.0383,0.0198 0.0652,0.0441 0.0269,0.0243 0.0777,0.069 0.11291,0.0994 0.0352,0.0304 0.0578,0.0553 0.0502,0.0553 -0.0154,0 0.086,0.19126 0.12896,0.24305 0.0151,0.0182 0.0458,0.0729 0.0682,0.12153 0.0477,0.10339 0.0509,0.10761 0.2024,0.26846 0.0638,0.0677 0.116,0.14191 0.116,0.16486 0,0.0229 0.009,0.0417 0.0192,0.0417 0.016,0 0.0483,0.15364 0.0488,0.232 8e-4,0.14243 -0.0125,0.27067 -0.0307,0.29393 -0.0124,0.0158 -0.0285,0.0655 -0.0358,0.11045 -0.0102,0.0629 -0.029,0.0893 -0.0815,0.11484 -0.0902,0.0438 -0.13561,0.0924 -0.17518,0.18707 -0.0179,0.043 -0.0459,0.0781 -0.062,0.0781 -0.0432,0 -0.21306,0.17899 -0.21306,0.22454 0,0.0215 -0.0211,0.0503 -0.0468,0.0641 -0.0737,0.0394 -0.30635,0.22067 -0.38758,0.30189 -0.0406,0.0406 -0.0738,0.0933 -0.0738,0.11703 0,0.0413 -0.11833,0.19158 -0.30711,0.39002 -0.0482,0.0507 -0.10228,0.12034 -0.12005,0.15472 -0.0178,0.0344 -0.0532,0.0814 -0.0788,0.10454 -0.0256,0.0231 -0.0463,0.0529 -0.0462,0.0662 5.3e-4,0.0415 -0.29052,0.29763 -0.35132,0.30932 -0.13255,0.0255 -0.26313,0.0289 -0.36498,0.01 z m -0.44575,-1.69486 c 0.007,-0.0106 0.0411,-0.0251 0.0768,-0.0322 0.062,-0.0124 0.0656,-0.0197 0.0808,-0.16137 0.0213,-0.19949 0.008,-0.21647 -0.17857,-0.22466 -0.13868,-0.006 -0.15505,-0.002 -0.20473,0.0516 -0.0438,0.0473 -0.0519,0.0742 -0.0426,0.14314 0.009,0.0666 0.005,0.0824 -0.0194,0.0731 -0.0425,-0.0163 -0.0401,0.0614 0.004,0.11573 0.0254,0.0315 0.0377,0.0353 0.0463,0.0143 0.008,-0.0188 0.0205,-0.0213 0.0373,-0.007 0.014,0.0116 0.0553,0.0254 0.0918,0.0308 0.0365,0.005 0.0732,0.0112 0.0815,0.013 0.008,0.002 0.0206,-0.005 0.0272,-0.0159 z"
       style="opacity:0;fill:#ffcc00;fill-opacity:1;stroke:#ca990f;stroke-width:0.13069479;stroke-miterlimit:10;stroke-dasharray:none;stroke-opacity:1" />
    <path
       id="path1093"
       d="m 101.49581,150.08513 -1.701578,-1.61851 1.634808,-1.63503 1.6348,-1.63505 1.66824,1.66813 1.66824,1.66813 -1.5853,1.58542 c -0.87192,0.87197 -1.59258,1.58541 -1.60147,1.58541 -0.009,0 -0.78187,-0.72832 -1.71774,-1.6185 z"
       style="opacity:0;fill:#ffcc00;fill-opacity:1;stroke:#ca990f;stroke-width:0.13069479;stroke-miterlimit:10;stroke-dasharray:none;stroke-opacity:1" />
    <path
       id="path1095"
       d="m 101.31073,150.27497 -1.896773,-1.80417 1.824943,-1.82494 1.82495,-1.82495 1.85605,1.85595 1.85605,1.85595 -1.77313,1.77323 c -0.97522,0.97527 -1.77811,1.77319 -1.78422,1.77316 -0.006,-2e-5 -0.86465,-0.81193 -1.90787,-1.80423 z m 3.43244,-3.42127 -1.67929,-1.67929 -1.64749,1.64749 -1.647489,1.64749 1.719299,1.63731 1.7193,1.63731 1.60748,-1.60551 1.60748,-1.60551 z"
       style="opacity:0;fill:#ffcc00;fill-opacity:1;stroke:#ca990f;stroke-width:0.13069479;stroke-miterlimit:10;stroke-dasharray:none;stroke-opacity:1" />
    <path
       id="path1097"
       d="m 101.49581,150.08513 -1.701578,-1.61851 1.634808,-1.63503 1.6348,-1.63505 1.66824,1.66813 1.66824,1.66813 -1.5853,1.58542 c -0.87192,0.87197 -1.59258,1.58541 -1.60147,1.58541 -0.009,0 -0.78187,-0.72832 -1.71774,-1.6185 z"
       style="opacity:0;fill:#ffcc00;fill-opacity:1;stroke:#ca990f;stroke-width:0.13069479;stroke-miterlimit:10;stroke-dasharray:none;stroke-opacity:1" />
    <path
       id="path1099"
       d="m 32.038926,63.64099 c 0,-0.928065 -0.140615,-2.390468 -0.312479,-3.249787 l -0.31248,-1.562396 h 12.561672 12.561672 v 3.249784 3.249787 H 44.288119 32.038926 Z"
       style="opacity:0;fill:#ffcc00;fill-opacity:1;stroke:#ffbc00;stroke-width:2.9572854;stroke-miterlimit:10;stroke-dasharray:none;stroke-opacity:1" />
    <path
       id="path1101"
       d="m 31.97643,63.078526 c -0.03437,-1.237419 -0.09062,-2.643577 -0.124991,-3.124793 -0.05772,-0.808069 0.883283,-0.885163 12.311688,-1.008668 l 12.374184,-0.133726 v 3.258519 3.25852 H 44.288119 32.038926 Z"
       style="opacity:0;fill:#ffcc00;fill-opacity:1;stroke:#ffbc00;stroke-width:2.9572854;stroke-miterlimit:10;stroke-dasharray:none;stroke-opacity:1" />
    <path
       id="path1103"
       d="m 32.022072,64.953403 c -0.0093,-0.206237 -0.103414,-1.66864 -0.209208,-3.249787 L 31.62051,58.828807 h 12.458401 12.4584 v 3.249784 3.249787 H 44.288119 c -6.737056,0 -12.256777,-0.16874 -12.266047,-0.374975 z"
       style="opacity:0;fill:#ffcc00;fill-opacity:1;stroke:#ffbc00;stroke-width:2.9572854;stroke-miterlimit:10;stroke-dasharray:none;stroke-opacity:1" />
    <path
       id="path1105"
       d="M 140.53179,23.081163 V 5.8323003 h 2.9998 2.9998 V 23.081163 40.330027 h -2.9998 -2.9998 z"
       style="opacity:0;fill:#999999;fill-opacity:1;stroke:#ffbc00;stroke-width:2.9572854;stroke-miterlimit:10;stroke-dasharray:none;stroke-opacity:1" />
    <path
       id="path1107"
       d="M 140.53179,23.081163 V 5.8323003 h 2.9998 2.9998 V 23.081163 40.330027 h -2.9998 -2.9998 z"
       style="opacity:0;fill:#999999;fill-opacity:1;stroke:#ffbc00;stroke-width:2.9572854;stroke-miterlimit:10;stroke-dasharray:none;stroke-opacity:1" />
  </g>
</svg>
